<?xml version="1.0" encoding="utf-8"?>
<!-- Generator: Adobe Illustrator 15.0.0, SVG Export Plug-In . SVG Version: 6.00 Build 0)  -->
<!DOCTYPE svg PUBLIC "-//W3C//DTD SVG 1.1//EN" "http://www.w3.org/Graphics/SVG/1.1/DTD/svg11.dtd">
<svg version="1.1" id="Layer_1" xmlns="http://www.w3.org/2000/svg" xmlns:xlink="http://www.w3.org/1999/xlink" x="0px" y="0px"
	 width="82px" height="82px" viewBox="84.045 84.184 82 82" enable-background="new 84.045 84.184 82 82" xml:space="preserve">
<path fill="#ED1F24" d="M75.555,34.958L47.193,6.596C45.488,4.889,43.238,4.062,41,4.101c-2.237-0.04-4.487,0.788-6.195,2.495
	L6.445,34.958c-3.336,3.336-3.336,8.744,0,12.081c3.335,3.337,8.744,3.337,12.081,0l13.933-13.933v36.251
	c0,4.719,3.824,8.543,8.542,8.543c4.717,0,8.541-3.824,8.541-8.543V33.105l13.935,13.933c3.336,3.337,8.744,3.337,12.08,0
	C78.891,43.702,78.891,38.294,75.555,34.958z"/>
<path fill="#ED1F24" d="M47.042,159.736l28.36-28.359c1.707-1.707,2.535-3.957,2.494-6.193c0.041-2.236-0.787-4.486-2.494-6.194
	l-28.36-28.362c-3.336-3.336-8.744-3.336-12.081,0s-3.336,8.744,0,12.081l13.932,13.933h-36.25c-4.718,0-8.543,3.824-8.543,8.543
	c0,4.717,3.825,8.541,8.543,8.541h36.251l-13.933,13.935c-3.336,3.336-3.336,8.743,0,12.079S43.706,163.074,47.042,159.736z"/>
<path fill="#ED1F24" d="M90.49,131.227l28.359,28.36c1.707,1.708,3.957,2.534,6.194,2.495c2.235,0.039,4.485-0.787,6.194-2.495
	l28.359-28.36c3.338-3.338,3.338-8.746,0-12.082c-3.334-3.336-8.744-3.336-12.08,0l-13.934,13.935V96.826
	c0-4.719-3.822-8.543-8.541-8.543c-4.718,0-8.541,3.824-8.541,8.543v36.252l-13.934-13.934c-3.338-3.336-8.744-3.336-12.08,0
	S87.154,127.889,90.49,131.227z"/>
<path fill="#ED1F24" d="M119.001,6.445l-28.36,28.36c-1.707,1.707-2.535,3.957-2.494,6.194c-0.041,2.237,0.787,4.487,2.494,6.196
	l28.36,28.359c3.336,3.336,8.745,3.336,12.081,0c3.337-3.336,3.337-8.744,0-12.08l-13.936-13.934H153.4
	c4.719,0,8.543-3.823,8.543-8.542c0-4.718-3.824-8.541-8.543-8.541h-36.254l13.936-13.934c3.337-3.336,3.337-8.744,0-12.08
	C127.747,3.108,122.337,3.108,119.001,6.445z"/>
</svg>
