<?xml version="1.0" encoding="utf-8"?>
<!DOCTYPE svg PUBLIC "-//W3C//DTD SVG 1.1//EN" "http://www.w3.org/Graphics/SVG/1.1/DTD/svg11.dtd">
<svg version="1.1" id="Layer_1" xmlns="http://www.w3.org/2000/svg" xmlns:xlink="http://www.w3.org/1999/xlink" x="0px" y="0px"
	 width="287.324px" height="286.378px" viewBox="0 0 287.324 286.378" enable-background="new 0 0 287.324 286.378"
	 xml:space="preserve">
<g>
	<g>
		<path fill="#7F3FA5" d="M18.42,13.424c4.121,3.359,9.137,5.775,14.486,6.895l1.008,0.197c0.283,0.053,0.686,0.123,0.803,0.157
			c0.344,0.091,0.584,0.221,0.732,0.337c0.252,0.238,0.32,0.406,0.461,1.055c0.113,0.623,0.104,1.553-0.033,2.537
			c-0.131,0.992-0.369,2.055-0.67,3.131c-1.232,4.332-3.248,8.78-5.354,13.15c-4.274,8.787-9.22,17.381-13.86,26.484
			c-1.16,2.291-2.301,4.619-3.382,7.088c-0.541,1.236-1.063,2.515-1.558,3.879c-0.486,1.378-0.957,2.812-1.305,4.599
			c-0.166,0.913-0.317,1.886-0.313,3.175c-0.001,0.312,0.017,0.67,0.044,1.025c0.035,0.439,0.165,1.172,0.158,1.156l0.009,0.059
			c0.026,0.126-0.049-0.201,0.063,0.299l0.047,0.217l0.107,0.439c0.077,0.298,0.17,0.611,0.279,0.936
			c0.439,1.278,1.172,2.887,2.695,4.422c0.746,0.754,1.678,1.436,2.648,1.928c0.973,0.5,1.955,0.806,2.85,0.988
			c1.789,0.348,3.187,0.264,4.34,0.141c1.156-0.137,2.099-0.35,2.963-0.568c1.712-0.451,3.104-0.951,4.427-1.443
			c2.619-0.99,4.919-1.969,7.181-2.869c2.252-0.901,4.43-1.729,6.578-2.444c4.289-1.434,8.465-2.409,12.463-2.717
			c0.998-0.076,1.985-0.116,2.959-0.11c0.482,0.004,0.976,0.016,1.442,0.039l0.757,0.041l0.527,0.064
			c1.445,0.195,3.074,0.628,4.779,1.273c3.424,1.293,7.08,3.381,10.635,5.848c7.145,4.979,13.986,11.367,20.393,18.164
			c3.206,3.408,6.314,6.953,9.297,10.574c1.49,1.812,2.948,3.645,4.354,5.479c1.398,1.832,2.762,3.684,3.91,5.4l23.682-18.418
			c-1.915-2.219-3.77-4.18-5.643-6.111c-1.875-1.924-3.762-3.789-5.678-5.621c-3.83-3.663-7.759-7.193-11.83-10.605
			c-8.166-6.797-16.775-13.216-26.74-18.533c-5.006-2.625-10.368-5-16.536-6.492c-3.085-0.73-6.396-1.223-9.937-1.199
			c-0.443,0-0.882,0.018-1.344,0.035l-1.111,0.068c-0.779,0.055-1.533,0.125-2.293,0.211c-1.517,0.17-3.01,0.408-4.478,0.697
			c-5.879,1.156-11.293,3.174-16.243,5.473c-2.477,1.15-4.846,2.377-7.109,3.594c-1.785,0.958-3.517,1.917-5.131,2.773
			c0.104-0.365,0.207-0.73,0.323-1.104c0.679-2.197,1.483-4.462,2.332-6.737c3.427-9.14,7.444-18.387,10.858-28.011
			c1.685-4.842,3.316-9.732,4.227-15.152c0.217-1.363,0.377-2.769,0.402-4.268c0.013-1.496-0.068-3.1-0.643-4.881
			c-0.287-0.881-0.736-1.82-1.404-2.678c-0.666-0.863-1.568-1.599-2.52-2.078c-0.951-0.476-1.916-0.723-2.801-0.834
			c-0.499-0.055-0.717-0.062-1.051-0.086l-0.844-0.068c-4.506-0.424-8.957-1.941-12.892-4.469c-1.969-1.258-3.813-2.752-5.496-4.432
			c-1.661-1.666-3.243-3.584-4.425-5.523L8.677,1.144c1.149,2.474,2.558,4.595,4.19,6.666C14.499,9.86,16.355,11.75,18.42,13.424z
			 M24.027,85.36l-0.015-0.057c-0.077-0.318,0.015,0.104,0.009,0.234c-0.001,0.045-0.011,0.092-0.019,0.093
			c-0.041,0.043-0.062-0.231-0.049-0.552c0.002-0.041,0.008-0.096,0.012-0.141c0.035,0.098,0.057,0.176,0.06,0.211
			c0.002,0.031-0.002,0.049-0.012,0.047c-0.005,0.004-0.011-0.004-0.017-0.011l-0.01-0.01C24.09,85.638,24.008,85.272,24.027,85.36z
			"/>
		<path fill="#7F3FA5" d="M15.67,215.106c1.384-0.873,2.727-2.018,3.764-3.527c1.046-1.498,1.688-3.361,1.844-5.166
			c0.176-1.811-0.018-3.547-0.335-5.166c-0.664-3.24-1.805-6.102-2.803-8.869c-1.022-2.748-1.994-5.398-2.495-7.902
			c-0.521-2.506-0.525-4.768,0.156-6.557c0.339-0.914,0.805-1.682,1.523-2.635c0.719-0.945,1.508-1.82,2.383-2.602
			c1.748-1.568,3.801-2.791,6.051-3.723c2.254-0.928,4.714-1.529,7.257-1.877c2.543-0.355,5.174-0.465,7.821-0.354
			c5.279,0.248,10.688,1.193,15.615,2.906c0.611,0.213,1.215,0.439,1.803,0.674l2.018,0.832c1.74,0.684,3.499,1.178,5.241,1.533
			c3.487,0.701,6.901,0.879,10.215,0.766c3.313-0.135,6.532-0.557,9.687-1.164c1.576-0.305,3.135-0.66,4.688-1.062
			c0.775-0.201,1.55-0.416,2.327-0.645l0.584-0.176l0.293-0.092c0.101-0.023,0.198-0.059,0.265-0.186
			c0.137-0.254,0.202-0.727,0.065-1.783l-0.069-0.686l-0.035-0.342c-0.004-0.088-0.07-0.363-0.104-0.535l-0.51-2.354l-0.34-0.938
			l-0.564-1.191l-5.241-18.252l-0.127,0.047L86.27,144.2c-0.271,0.08-0.568,0.156-0.874,0.229c-0.612,0.145-1.258,0.264-1.913,0.361
			c-1.312,0.195-2.663,0.299-4.009,0.303c-2.696,0.01-5.374-0.371-7.937-1.158c-2.564-0.787-5.022-1.986-7.322-3.588
			c-2.23-1.533-4.637-3.801-6.943-6.188c-4.666-4.844-9.158-10.408-14.031-15.934c-2.455-2.77-4.988-5.555-7.947-8.248
			c-1.488-1.344-3.086-2.67-4.987-3.9c-1.911-1.193-4.152-2.437-7.249-2.84c-1.527-0.192-3.266-0.07-4.848,0.448
			c-1.588,0.515-2.951,1.368-4.013,2.288c-0.524,0.451-1.028,0.965-1.405,1.404c-0.541,0.617-0.933,1.17-1.304,1.775
			c-0.735,1.203-1.239,2.48-1.562,3.719c-0.637,2.488-0.613,4.777-0.416,6.879c0.212,2.105,0.633,4.057,1.129,5.928
			c1.005,3.74,2.318,7.189,3.625,10.562c1.3,3.363,2.662,6.658,3.638,9.863c0.474,1.576,0.851,3.205,0.845,4.436
			c0.002,0.615-0.119,1.012-0.193,1.162c-0.053,0.15-0.254,0.352-0.815,0.484c-0.271,0.061-0.592,0.098-0.938,0.107l-0.131,0.002
			l-0.033,0.002c0.086,0.006,0,0,0.008,0.002l-0.084-0.002l-0.336-0.012c-0.246-0.004-0.396-0.02-0.575-0.029
			c-0.729-0.053-1.506-0.186-2.231-0.389c-1.469-0.404-2.851-1.143-4.094-2.141c-2.496-2.008-4.344-4.998-5.669-8.189
			c-1.319-3.207-2.213-6.684-2.655-10.166L0,131.417c0.062,3.662,0.578,7.275,1.602,10.842c1.046,3.531,2.646,7.086,5.466,9.945
			c1.404,1.412,3.123,2.609,5.044,3.377c0.965,0.391,1.939,0.674,2.984,0.869c0.266,0.047,0.558,0.1,0.759,0.125l0.333,0.047
			l0.227,0.025l0.205,0.02c0.547,0.047,1.125,0.061,1.742,0c0.618-0.062,1.288-0.201,1.973-0.496
			c0.685-0.291,1.373-0.764,1.908-1.367c1.086-1.234,1.444-2.66,1.596-3.814c0.265-2.357-0.065-4.297-0.389-6.199
			c-0.714-3.764-1.74-7.238-2.652-10.688c-0.918-3.436-1.785-6.826-2.284-10.1c-0.247-1.629-0.397-3.229-0.378-4.701
			c0.019-1.469,0.228-2.814,0.625-3.768c0.195-0.479,0.427-0.854,0.678-1.145c0.12-0.145,0.281-0.299,0.348-0.34
			c0.232-0.217,0.387-0.318,0.559-0.428c0.33-0.203,0.559-0.244,0.693-0.234c0.139,0.018,0.231,0.047,0.475,0.131
			c0.467,0.146,1.457,0.688,2.466,1.535c1.022,0.844,2.095,1.928,3.142,3.111c2.103,2.383,4.133,5.143,6.137,7.979
			c4.027,5.707,7.908,11.795,12.562,17.846c2.37,3.031,4.848,6.061,8.199,9.031c3.225,2.852,6.955,5.277,10.994,7.076
			c-0.148-0.051-0.309-0.088-0.455-0.143l-2.086-0.803c-0.789-0.289-1.578-0.543-2.365-0.785c-3.15-0.957-6.307-1.635-9.496-2.092
			c-3.186-0.467-6.406-0.678-9.648-0.635c-6.459,0.088-13.15,1.156-19.381,4.234c-3.1,1.521-6.024,3.617-8.447,6.215
			c-1.215,1.293-2.291,2.717-3.228,4.205c-0.948,1.475-1.848,3.355-2.306,5.283c-0.479,1.93-0.577,3.902-0.414,5.738
			c0.168,1.84,0.561,3.557,1.082,5.148c1.045,3.188,2.457,5.949,3.804,8.588c1.361,2.621,2.699,5.137,3.563,7.596
			c0.877,2.469,1.145,4.76,0.205,6.797c-0.934,2.08-3.151,3.855-5.59,5.215c-2.447,1.42-5.183,2.473-7.947,3.467l0.229,0.977
			c2.963-0.359,5.913-0.953,8.846-1.949C12.834,216.635,14.279,215.985,15.67,215.106z"/>
		<path fill="#7F3FA5" d="M99.23,128.844l-0.483-0.688l-0.123-0.172l-0.168-0.229l-0.453-0.592l-0.924-1.172l-0.656-0.756
			l-1.861-1.996l-0.582-0.604l-0.291-0.305c-0.096-0.1-0.117-0.111-0.18-0.174c-0.23-0.221-0.4-0.371-0.438-0.363
			c-0.038,0.01-0.057,0.041-0.086,0.061l-0.336,0.277l-0.704,0.559c-0.479,0.369-0.969,0.73-1.465,1.084
			c-0.993,0.703-2.012,1.359-3.04,1.955c-2.045,1.188-4.146,2.182-6.06,2.646c-0.953,0.229-1.834,0.35-2.58,0.33
			c-0.75-0.02-1.348-0.154-1.896-0.414c-0.542-0.268-1.096-0.658-1.643-1.289c-0.543-0.625-1.059-1.457-1.5-2.416
			c-0.227-0.502-0.414-0.943-0.65-1.561l-0.751-1.922c-0.497-1.287-1.021-2.566-1.565-3.848c-1.076-2.562-2.224-5.125-3.59-7.676
			c-0.684-1.277-1.427-2.553-2.324-3.809c-0.896-1.248-1.943-2.522-3.471-3.551c-0.767-0.496-1.687-0.88-2.625-1.021
			c-0.938-0.146-1.851-0.059-2.643,0.154c-1.592,0.457-2.814,1.271-3.941,2.143l0.434,0.902c1.334-0.289,2.678-0.531,3.811-0.398
			c1.154,0.107,1.826,0.6,2.37,1.35c1.149,1.527,1.872,4.104,2.548,6.572c0.655,2.525,1.232,5.15,1.84,7.783l0.905,3.969l0.462,1.99
			c0.163,0.689,0.41,1.543,0.689,2.311c0.568,1.576,1.326,3.188,2.427,4.748c1.093,1.551,2.586,3.055,4.433,4.123
			c1.836,1.082,3.934,1.688,5.904,1.875c1.98,0.191,3.846,0.02,5.559-0.336c3.426-0.73,6.361-2.021,9.06-3.521
			c1.346-0.758,2.633-1.568,3.88-2.428c0.624-0.432,1.236-0.873,1.845-1.33l0.91-0.705l0.458-0.369
			c0.036-0.033,0.083-0.057,0.111-0.102c0.027-0.047-0.078-0.252-0.243-0.529c-0.046-0.074-0.052-0.1-0.13-0.215L99.23,128.844z"/>
		<path fill="#7F3FA5" d="M122.788,87.008h-0.019C122.776,87.063,122.782,87.045,122.788,87.008z"/>
		<path fill="#7F3FA5" d="M178.403,249.766c-0.271-0.312-0.355-0.438-0.621-0.73l-0.664-0.736
			c-3.488-3.771-7.506-6.604-10.582-9.381c-1.525-1.373-2.785-2.746-3.426-3.936c-0.652-1.211-0.715-2.039-0.602-3.07
			c0.068-0.523,0.201-1.115,0.416-1.773c0.111-0.33,0.232-0.672,0.381-1.029l0.535-1.523l2.268-6.471
			c0.76-2.217,1.514-4.506,2.188-6.939c0.668-2.438,1.273-5.02,1.602-7.928c0.309-2.895,0.381-6.207-0.604-9.928
			c-0.49-1.844-1.285-3.764-2.395-5.537c-1.104-1.775-2.504-3.377-4.006-4.688l-9.913,12.248l-14.405-11.705
			c-0.742,1.061-1.332,1.973-1.965,2.949l-1.818,2.893c-1.189,1.934-2.34,3.887-3.455,5.871c-0.893,1.594-1.756,3.213-2.599,4.85
			l-5.134-12.922c-0.871,0.4-1.547,0.742-2.29,1.119l-0.597,0.311l-17.283-21.541l-0.988,0.879
			c-0.305,0.264-0.611,0.523-0.927,0.773c-0.627,0.504-1.271,0.986-1.937,1.441c-1.328,0.914-2.736,1.734-4.232,2.469
			c-2.991,1.463-6.346,2.557-10.051,3.334c-3.709,0.783-7.731,1.232-12.146,1.586c-2.213,0.182-4.525,0.34-7.038,0.574
			c-2.524,0.252-5.213,0.52-8.479,1.283c-1.633,0.396-3.44,0.928-5.461,1.867c-2,0.938-4.287,2.371-6.252,4.514
			c-1.977,2.115-3.379,4.812-4.062,7.209c-0.355,1.203-0.57,2.352-0.697,3.424l-0.039,0.316l-0.002,0.055l-0.004,0.105l-0.01,0.23
			c-0.027,0.387-0.052,0.828-0.057,1.17c-0.004,0.621,0.019,1.232,0.07,1.828c0.202,2.391,0.807,4.49,1.537,6.289
			c0.736,1.803,1.604,3.328,2.499,4.691c1.802,2.719,3.726,4.822,5.642,6.729c2.158,2.113,4.334,3.965,6.492,5.678
			c-1.898-0.305-3.806-0.631-5.729-0.979c-4.472-0.787-8.974-1.703-13.83-2.301c-2.444-0.271-4.966-0.512-7.87-0.232
			c-1.449,0.156-3.039,0.451-4.711,1.227c-1.666,0.746-3.352,2.18-4.305,3.861c-0.977,1.672-1.334,3.35-1.481,4.832
			c-0.14,1.496-0.067,2.861,0.077,4.164c0.163,1.311,0.316,2.252,0.436,3.365c0.123,1.086,0.222,2.174,0.293,3.262
			c0.285,4.354,0.17,8.744-0.53,13.021c-0.71,4.266-2.011,8.459-4.294,12.064c-2.254,3.602-5.655,6.496-9.826,7.832l0.466,1.768
			c2.339-0.486,4.63-1.398,6.681-2.723c2.061-1.312,3.871-3.008,5.403-4.906c3.069-3.816,5.036-8.346,6.349-12.953
			c1.303-4.625,1.963-9.387,2.187-14.15c0.056-1.191,0.082-2.387,0.082-3.578c0.008-1.164-0.048-2.492-0.056-3.457
			c0-0.975,0.076-1.9,0.248-2.666c0.168-0.77,0.444-1.338,0.693-1.6c0.258-0.262,0.428-0.324,0.864-0.459
			c0.433-0.117,1.127-0.201,1.95-0.184c1.658,0.031,3.693,0.398,5.74,0.879c4.133,0.984,8.469,2.369,12.875,3.674
			c4.414,1.316,8.935,2.602,13.576,3.674c1.161,0.268,2.33,0.523,3.506,0.764l1.776,0.355c0.608,0.129,1.231,0.248,1.868,0.363
			c1.286,0.223,2.6,0.43,4.242,0.5c0.423,0.014,0.857,0.021,1.365-0.002c0.5-0.023,1.053-0.066,1.761-0.199
			c0.707-0.146,1.56-0.326,2.805-0.982c0.662-0.379,1.36-0.822,2.156-1.684c0.769-0.822,1.479-2.002,1.832-3.248
			c0.354-1.234,0.372-2.352,0.28-3.24c-0.096-0.875-0.281-1.527-0.463-2.072c-0.379-1.078-0.74-1.699-1.064-2.262
			c-0.648-1.072-1.182-1.744-1.688-2.383c-1.002-1.234-1.888-2.186-2.758-3.109c-1.729-1.822-3.359-3.443-4.934-5.059
			c-3.129-3.199-6.062-6.338-8.285-9.4c-0.991-1.367-1.812-2.717-2.329-3.871c1.197-0.113,2.866-0.166,4.654-0.16l6.638,0.084
			c4.7,0.059,9.807,0.014,15.122-0.578c5.312-0.588,10.868-1.74,16.317-3.754c1.308-0.482,2.606-1.018,3.892-1.596
			c-0.851,0.584-1.698,1.182-2.541,1.811c-2.7,2.033-5.379,4.252-7.955,7.219c-1.278,1.5-2.548,3.195-3.627,5.387
			c-0.534,1.094-1.015,2.32-1.343,3.701c-0.329,1.375-0.493,2.916-0.378,4.48c0.103,1.549,0.516,3.16,1.073,4.455l0.856,1.891
			c0.554,1.258,1.078,2.523,1.565,3.795c0.975,2.541,1.808,5.107,2.427,7.66c1.235,5.068,1.603,10.254,0.086,14.076
			c-0.75,1.902-1.954,3.482-3.747,4.744c-1.781,1.264-4.115,2.154-6.661,2.688c-0.637,0.135-1.288,0.248-1.948,0.344l-0.992,0.131
			l-1.106,0.117c-1.401,0.146-2.854,0.271-4.295,0.373c-2.888,0.203-5.794,0.312-8.716,0.354c-5.85,0.102-11.739-0.164-17.758-0.154
			c-1.508,0.014-3.024,0.053-4.562,0.184c-1.535,0.143-3.102,0.344-4.673,0.918c-0.776,0.301-1.573,0.693-2.239,1.332
			c-0.675,0.613-1.15,1.482-1.328,2.334c-0.365,1.73,0.066,3.285,0.521,4.727l0.966-0.26c-0.266-1.396-0.404-2.879,0.027-4.035
			c0.408-1.154,1.42-1.758,2.693-2.047c1.268-0.287,2.686-0.303,4.1-0.246c1.423,0.062,2.865,0.211,4.312,0.387
			c5.796,0.74,11.679,1.775,17.653,2.449c2.986,0.346,5.999,0.623,9.029,0.803c1.521,0.09,3.025,0.156,4.58,0.195l1.112,0.025h1.222
			c0.815-0.012,1.637-0.045,2.467-0.107c3.305-0.262,6.789-0.977,10.14-2.691c1.667-0.854,3.274-1.973,4.696-3.328
			c1.42-1.355,2.638-2.941,3.598-4.629c1.93-3.395,2.833-7.062,3.221-10.545c0.381-3.504,0.27-6.895-0.078-10.18
			c-0.354-3.285-0.953-6.475-1.703-9.594c-0.375-1.559-0.789-3.102-1.236-4.625l-0.691-2.271c0.023-0.084,0.118,0.062,0.161,0.133
			c0.101,0.203,0.132,0.133,0.476-0.309c0.328-0.418,0.918-1.057,1.668-1.705c1.516-1.32,3.592-2.691,5.813-3.932
			c2.234-1.248,4.65-2.402,7.132-3.463c0.688-0.295,1.391-0.562,2.09-0.842c-0.067,0.152-0.14,0.303-0.205,0.459
			c-1.823,4.344-3.5,8.854-4.354,14.189c-0.386,2.676-0.612,5.625,0.101,9.023c0.367,1.686,1.014,3.488,2.08,5.154
			c0.527,0.828,1.148,1.617,1.84,2.314c0.174,0.172,0.347,0.348,0.528,0.51l0.271,0.242l0.068,0.059
			c0.028,0.027-0.111-0.105-0.043-0.043l0.021,0.016l0.079,0.061l0.16,0.123c0.033,0.023,0.033,0.018,0.051,0.023
			c0.02-0.002,0.072,0.035,0.132,0.076c0.882,0.6,1.796,1.717,2.534,3.141c0.746,1.424,1.33,3.123,1.748,4.928
			c0.836,3.627,1.052,7.645,0.781,11.641c-0.287,4-1.041,8.047-2.47,11.826c-0.721,1.885-1.618,3.705-2.806,5.301
			c-1.184,1.574-2.7,2.959-4.637,3.479l0.139,0.99c2.339-0.084,4.518-1.309,6.253-2.791c1.758-1.502,3.207-3.297,4.469-5.188
			c2.511-3.799,4.322-7.992,5.651-12.363c1.304-4.385,2.14-8.971,2.148-13.846c-0.006-2.439-0.229-4.961-0.875-7.574
			c-0.654-2.6-1.742-5.355-3.744-7.918c-0.121-0.154-0.248-0.314-0.416-0.508l-0.357-0.416l-0.064-0.076l-0.016-0.021
			c0.057,0.053-0.096-0.094-0.08-0.078l-0.003-0.012l-0.015-0.037c-0.012-0.021-0.012-0.051-0.021-0.072
			c-0.025-0.092-0.027-0.178-0.031-0.271c-0.006-0.184-0.013-0.447,0.008-0.865c0.031-0.83,0.291-2.205,0.811-3.686
			c1.033-3.004,2.868-6.363,4.948-9.592c2.096-3.25,4.479-6.457,6.999-9.58c1.261-1.562,2.561-3.104,3.886-4.617l1.54-1.725
			c0.199,0.693,0.341,1.623,0.369,2.701c0.105,3.307-0.619,7.545-1.487,11.848l-1.394,6.668l-0.358,1.768
			c-0.144,0.742-0.258,1.514-0.343,2.303c-0.164,1.582-0.188,3.273,0.035,5.021c0.227,1.742,0.717,3.529,1.473,5.162
			c0.753,1.631,1.744,3.076,2.803,4.285c2.139,2.426,4.432,3.975,6.547,5.303c4.254,2.59,8.125,4.404,11.332,6.83l0.572,0.438
			c0.145,0.1,0.455,0.383,0.582,0.475c0.199,0.137,0.373,0.281,0.529,0.457c0.311,0.346,0.568,0.857,0.709,1.57
			c0.287,1.432,0.025,3.424-0.527,5.377c-1.135,3.969-3.211,7.98-5.494,11.809c-2.314,3.836-4.908,7.574-7.709,11.133l0.721,0.693
			c3.443-3.051,6.695-6.301,9.77-9.791c3.047-3.516,5.965-7.203,8.203-11.697c1.076-2.268,2.064-4.764,2.146-7.896
			c0.023-1.553-0.26-3.309-1.062-4.953C179.504,251.223,178.991,250.45,178.403,249.766z M62.231,202.27
			c0.023,0.025,0.049,0.066,0.066,0.119c0.011,0.059,0.013,0.215,0.004,0.316l0.039-0.197l0.021-0.104l0.012-0.053
			c0.01-0.074-0.053,0.422-0.024,0.211c0.034-0.057,0.063-0.025,0.054,0.092c0,0.121-0.083,0.375-0.217,0.654
			C61.986,202.551,62.056,202.088,62.231,202.27z M73.721,228.047c-0.133,0.021-0.285,0.037-0.441,0.055
			c0.403-0.162,0.602-0.174,0.715-0.189C74.274,227.909,74.002,228.004,73.721,228.047z"/>
		<path fill="#7F3FA5" d="M282.754,216.977c0.074,3.143-0.92,6.461-3.062,8.465c-2.139,2.041-5.223,2.619-8.258,2.457
			c-0.375-0.021-0.723-0.047-1.156-0.088c-0.369-0.037-0.654-0.088-0.953-0.168c-0.584-0.158-1.064-0.412-1.459-0.75
			c-0.787-0.664-1.314-1.771-1.627-3.105c-0.609-2.695-0.441-5.895-0.104-9.023c0.74-6.324,2.252-12.734,3.713-19.199
			c1.463-6.494,3.053-12.994,3.977-20.041c0.219-1.785,0.391-3.561,0.439-5.527l0.01-0.312v-0.426l-0.021-0.85
			c-0.029-0.572-0.076-1.152-0.156-1.74c-0.158-1.176-0.432-2.383-0.848-3.58c-0.822-2.396-2.281-4.713-4.096-6.518
			c-1.812-1.82-3.896-3.15-5.953-4.121c-4.15-1.926-8.225-2.629-12.131-2.953c-3.918-0.295-7.717-0.137-11.471,0.314
			c-3.758,0.465-7.451,1.211-11.229,2.404c-1.896,0.611-3.805,1.32-5.855,2.352c-0.514,0.26-1.039,0.543-1.58,0.865l-0.777,0.479
			l-0.102,0.066l-0.02,0.012l-0.043,0.021l-0.082,0.047l-0.166,0.092c-0.447,0.236-0.912,0.453-1.395,0.65
			c-1.924,0.785-4.156,1.246-6.549,1.375c-1.191,0.066-2.422,0.051-3.643-0.047c-0.611-0.049-1.221-0.117-1.805-0.205
			c-0.293-0.043-0.576-0.092-0.846-0.145l-0.373-0.08l-0.15-0.039c-0.002-0.002-0.006-0.002-0.008-0.002l-2.248,13.283l-19.158,9.52
			c0.223,0.426,0.311,0.57,0.447,0.807l0.238,0.395l-1.529-0.572l-0.961-0.277l-2.969-0.549l-0.742-0.133l-0.439-0.047l-0.855-0.084
			l-0.854-0.082l-0.428-0.039c-0.16-0.018-0.176,0.004-0.271,0.002l-0.457,0.029c-0.16,0.008-0.314,0.018-0.371,0.053
			c-0.396,0.098-0.289,0.328-0.373,0.506l-0.141,0.561l-0.523,2.232c-0.332,1.486-0.635,2.979-0.906,4.48
			c-0.541,3.008-0.971,6.062-1.213,9.227c-0.207,3.172-0.248,6.439,0.18,9.977c0.219,1.77,0.562,3.617,1.184,5.578
			c0.627,1.949,1.535,4.061,3.121,6.125c1.551,2.059,3.932,3.982,6.553,4.996c1.299,0.521,2.615,0.834,3.861,0.996
			c0.623,0.078,1.234,0.129,1.822,0.143l1.164,0.008c2.867,0.02,5.645-0.027,8.273,0.014c2.598,0.041,5.146,0.207,6.898,0.6
			c0.873,0.166,1.445,0.424,1.529,0.418c0.035-0.002-0.012-0.105-0.061-0.236c-0.041-0.133-0.033-0.262,0.006-0.227
			c0.102,0.043,0.174,0.707,0.045,1.586c-0.117,0.879-0.402,1.947-0.789,3.049c-0.188,0.553-0.412,1.119-0.643,1.688l-0.818,1.879
			c-0.59,1.33-1.146,2.678-1.689,4.029c-2.189,5.396-4.113,10.908-5.645,16.586c-1.463,5.688-2.686,11.533-2.537,17.697
			c0.113,3.047,0.553,6.311,2.312,9.209c0.891,1.42,2.189,2.641,3.672,3.334c1.477,0.719,3.053,0.924,4.527,0.865l0.107-0.994
			c-1.326-0.359-2.547-0.93-3.469-1.727c-0.93-0.799-1.527-1.818-1.869-2.938c-0.703-2.246-0.502-4.852-0.043-7.4
			c0.494-2.562,1.256-5.135,2.186-7.67c0.922-2.537,1.965-5.055,3.115-7.535c2.266-4.979,4.848-9.854,7.562-14.646l2.072-3.57
			l1.105-1.9c0.385-0.701,0.768-1.412,1.131-2.162c0.727-1.494,1.408-3.096,1.93-4.973c0.504-1.863,0.898-4.074,0.477-6.822
			c-0.215-1.355-0.699-2.832-1.479-4.172c-0.764-1.354-1.803-2.498-2.857-3.393c-2.146-1.764-4.238-2.604-6.074-3.215
			c-3.703-1.133-6.832-1.438-9.867-1.748c-3.016-0.281-5.893-0.438-8.678-0.584l-0.525-0.029c-0.146-0.01-0.43-0.02-0.43-0.027
			c-0.119-0.012-0.209-0.035-0.287-0.055c-0.15-0.041-0.215-0.084-0.221-0.107c-0.002-0.057,0.109,0.014-0.021-0.197
			c-0.105-0.207-0.359-0.719-0.562-1.465c-0.205-0.746-0.367-1.693-0.457-2.732c-0.188-2.086-0.105-4.5,0.135-6.961
			c0.215-2.471,0.594-5.02,1.084-7.57c0.186-0.969,0.402-1.936,0.619-2.902c0.316,0.35,0.621,0.703,0.953,1.047
			c2.389,2.449,5.23,4.801,8.82,6.654c3.549,1.852,7.982,3.074,12.389,2.975c4.404-0.051,8.488-1.352,11.688-2.988
			c3.668-1.988,7.387-3.664,10.672-4.605c1.613-0.473,3.109-0.715,4.014-0.754c0.447-0.025,0.725-0.012,0.795-0.049
			c0.078-0.031-0.049-0.16-0.125-0.326c-0.082-0.16-0.062-0.297,0.064-0.186c0.121,0.104,0.312,0.445,0.471,0.967
			c0.326,1.045,0.482,2.719,0.432,4.529c-0.088,3.617-0.926,8.002-1.916,12.357c-2.027,8.801-4.74,17.879-7.061,27.199
			c-1.158,4.674-2.25,9.42-3.027,14.369c-0.385,2.479-0.691,5.01-0.812,7.646c-0.107,2.641-0.078,5.387,0.527,8.373
			c0.312,1.488,0.779,3.049,1.576,4.615c0.789,1.559,1.963,3.123,3.473,4.32c1.502,1.211,3.26,1.984,4.908,2.389
			c1.66,0.406,3.232,0.492,4.703,0.445c0.732-0.029,1.449-0.088,2.143-0.18l1.037-0.152l0.906-0.164
			c1.273-0.232,2.504-0.508,3.752-0.836c2.484-0.656,4.961-1.523,7.338-2.711c2.373-1.182,4.646-2.705,6.605-4.576
			c1.967-1.861,3.576-4.072,4.803-6.33c0.619-1.125,1.15-2.264,1.641-3.344c0.486-1.07,0.945-2.119,1.4-2.873
			c0.223-0.377,0.441-0.648,0.586-0.793c0.152-0.141,0.201-0.193,0.408-0.244c0.408-0.109,1.381,0.109,2.293,0.543
			c1.502,0.652,2.65,2.141,3.137,4.139c0.512,1.992,0.512,4.279,0.367,6.559c-0.146,2.293-0.471,4.617-0.691,6.996
			c-0.104,1.189-0.191,2.396-0.115,3.646c0.041,0.623,0.131,1.266,0.357,1.91c0.227,0.635,0.691,1.309,1.381,1.625l0.465-0.885
			c-0.742-0.455-0.869-1.588-0.82-2.674c0.051-1.102,0.256-2.238,0.48-3.371c0.463-2.273,1.041-4.566,1.457-6.943
			c0.402-2.375,0.721-4.846,0.357-7.49c-0.191-1.314-0.584-2.689-1.338-3.961c-0.766-1.285-1.816-2.357-3.18-3.166l-0.398-0.23
			l-0.096-0.055l-0.172-0.086l-0.232-0.117c-0.314-0.152-0.646-0.299-1.002-0.428c-0.707-0.256-1.531-0.473-2.508-0.453
			c-0.971,0.004-2.072,0.367-2.867,0.926c-0.807,0.549-1.361,1.184-1.814,1.766c-0.893,1.176-1.475,2.246-2.082,3.254
			c-0.594,1.006-1.168,1.943-1.781,2.82c-2.408,3.521-5.637,5.906-9.518,7.312c-1.928,0.709-3.98,1.191-6.094,1.51
			c-1.051,0.156-2.141,0.275-3.197,0.354l-0.844,0.059l-0.717,0.023c-0.479,0.01-0.938-0.01-1.379-0.041
			c-0.877-0.07-1.666-0.234-2.27-0.477c-0.605-0.244-1.006-0.537-1.287-0.863c-0.279-0.33-0.502-0.725-0.701-1.295
			c-0.195-0.566-0.342-1.301-0.41-2.129c-0.146-1.662,0.006-3.658,0.324-5.689c0.322-2.043,0.809-4.156,1.381-6.279
			c1.152-4.254,2.641-8.562,4.227-12.879c3.182-8.664,6.834-17.299,10.066-26.553c1.584-4.68,3.158-9.432,4.008-15.184
			c0.387-2.863,0.619-5.938,0.121-9.529c-0.26-1.791-0.719-3.729-1.598-5.756c-0.867-2.014-2.209-4.117-4.012-5.885
			c-1.791-1.777-3.975-3.135-6.092-4c-2.129-0.879-4.18-1.32-6.072-1.553c-3.02-0.352-5.68-0.221-8.146,0.082
			c0.061-0.045,0.107-0.088,0.176-0.135c0.844-0.598,1.984-1.225,3.191-1.787c2.439-1.139,5.193-2.084,7.971-2.785
			c2.779-0.703,5.623-1.17,8.344-1.312c2.709-0.145,5.334,0.068,7.336,0.688c1,0.305,1.814,0.697,2.441,1.137
			c0.625,0.447,1.092,0.936,1.48,1.629c0.193,0.348,0.361,0.748,0.494,1.205c0.068,0.229,0.125,0.473,0.176,0.727l0.066,0.393
			l0.016,0.1c0.002,0.002,0.006,0.064,0.006,0.02l0.008,0.078l0.029,0.311c0.141,1.35,0.193,2.896,0.193,4.422
			c-0.025,6.203-0.76,12.801-1.414,19.406c-0.65,6.635-1.396,13.34-1.346,20.285c0.021,1.74,0.104,3.496,0.318,5.281
			c0.219,1.781,0.551,3.602,1.23,5.441c0.348,0.918,0.787,1.844,1.398,2.725c0.609,0.877,1.412,1.709,2.381,2.316
			c0.967,0.615,2.066,0.979,3.117,1.113c0.518,0.07,1.062,0.086,1.521,0.072c0.395-0.012,0.877-0.031,1.332-0.064
			c1.787-0.135,3.602-0.479,5.326-1.174c1.721-0.693,3.332-1.795,4.514-3.244c1.188-1.445,1.922-3.168,2.277-4.895
			c0.354-1.742,0.4-3.467,0.131-5.211L282.754,216.977z"/>
		<path fill="#7F3FA5" d="M204.981,157.657l0.004-0.016C204.874,157.629,204.954,157.647,204.981,157.657z"/>
		<path fill="#7F3FA5" d="M287.178,157.686c-2.115-0.182-3.643-1.211-4.771-2.672c-1.154-1.451-2.064-3.252-2.998-5.123
			c-1.848-3.762-3.783-7.916-6.84-11.779c-3.053-3.848-7.156-7.34-12.52-9.299c-2.662-0.943-5.531-1.42-8.271-1.486
			c-2.748-0.043-5.357,0.279-7.773,0.711c-2.424,0.42-4.654,1.035-6.762,1.57c-2.109,0.547-4.092,1.051-5.953,1.494
			c-3.824,0.885-6.703,1.088-10.613,1.055c-3.762-0.066-7.691-0.482-11.641-1.025c-1.039-0.148-2.082-0.314-3.123-0.492
			c0.633-0.799,1.279-1.584,1.934-2.355c2.598-3.059,5.363-5.914,8.225-8.252c2.828-2.334,5.857-4.111,8.197-4.676
			c1.174-0.287,2.094-0.332,3.039-0.123c0.238,0.055,0.48,0.127,0.729,0.225l1.58,0.746c1.15,0.529,2.301,1.008,3.451,1.451
			c4.596,1.76,9.209,2.986,13.879,3.85c4.666,0.848,9.391,1.324,14.164,1.215c2.385-0.061,4.781-0.273,7.168-0.74
			c2.379-0.475,4.766-1.195,6.977-2.41c2.199-1.197,4.215-3.006,5.352-5.271c1.156-2.258,1.393-4.74,1.146-7.014h-1
			c-0.23,2.152-0.953,4.195-2.211,5.697c-1.248,1.512-2.965,2.467-4.834,3.01c-3.781,1.07-8.014,0.729-12.078-0.045
			c-4.09-0.805-8.115-2.127-11.979-3.746c-3.857-1.627-7.584-3.572-10.934-5.791c-0.836-0.555-1.645-1.127-2.412-1.713
			c-0.432-0.316-0.605-0.512-1.275-0.972c-0.707-0.471-1.455-0.903-2.236-1.287c-3.139-1.563-6.771-2.153-10.014-1.981
			c-3.268,0.156-6.205,0.926-8.865,1.895c-2.664,0.979-5.076,2.182-7.342,3.484c-2.52,1.457-4.854,3.045-7.08,4.705
			c0-0.004,0.002-0.01,0.004-0.014l0.182-0.557c0.135-0.387,0.285-0.785,0.447-1.188c0.322-0.805,0.686-1.615,1.07-2.408
			c0.775-1.59,1.656-3.12,2.613-4.528c1.918-2.824,4.139-5.138,6.561-6.653c2.42-1.518,5.125-2.313,8.375-2.172
			c1.613,0.071,3.334,0.385,5.092,0.908l0.66,0.207c0.133,0.046,0.176,0.05,0.379,0.131l0.402,0.145l0.926,0.336l0.92,0.312
			c1.23,0.407,2.475,0.773,3.734,1.092c5.031,1.282,10.314,1.773,15.439,1.287c5.129-0.469,10.043-1.898,14.479-3.968
			c4.449-2.065,8.441-4.733,12.086-7.67c3.654-2.931,6.928-6.175,10.193-9.336l-0.609-0.792c-3.889,2.427-7.715,4.871-11.701,6.865
			c-3.971,2.006-8.07,3.604-12.203,4.537c-4.131,0.938-8.273,1.19-12.234,0.699c-3.963-0.482-7.734-1.693-11.258-3.455
			c-0.881-0.439-1.746-0.914-2.598-1.418l-0.635-0.384l-0.615-0.389l-0.754-0.462l-0.883-0.51c-2.387-1.332-4.996-2.482-7.842-3.289
			c-2.838-0.805-5.914-1.252-9.057-1.196c-3.137,0.049-6.312,0.603-9.295,1.577c-5.998,1.963-11.07,5.434-15.25,9.308
			c-0.607,0.563-1.193,1.14-1.77,1.724c1.049-1.551,2.15-3.055,3.316-4.479c3.996-4.88,8.686-8.895,13.898-11.266
			c5.199-2.393,11.014-3.092,17.123-1.951l1.143,0.229l0.574,0.131l0.678,0.166l2.84,0.688c1.896,0.443,3.807,0.859,5.734,1.24
			c3.855,0.759,7.777,1.386,11.83,1.733c4.062,0.32,8.238,0.457,12.791-0.364c2.27-0.442,4.693-1.129,7.111-2.623
			c1.199-0.75,2.381-1.729,3.359-2.94c0.982-1.208,1.734-2.631,2.174-4.054c0.887-2.881,0.68-5.541,0.225-7.813
			c-0.477-2.293-1.248-4.315-2.121-6.211c-0.438-0.946-0.906-1.86-1.396-2.749l-0.75-1.314l-0.721-1.207
			c-0.951-1.588-1.883-3.172-2.77-4.762c-1.764-3.176-3.383-6.377-4.406-9.646c-1.027-3.262-1.375-6.6-0.471-9.797
			c0.873-3.202,2.953-6.166,5.496-8.729c2.553-2.572,5.539-4.805,8.65-6.843l-0.492-0.87c-3.387,1.648-6.711,3.514-9.77,5.895
			c-3.031,2.371-5.879,5.363-7.521,9.25c-0.82,1.927-1.295,4.027-1.432,6.125c-0.143,2.1,0.037,4.183,0.389,6.187
			c0.717,4.017,2.062,7.731,3.482,11.312c0.719,1.789,1.469,3.543,2.229,5.281l0.562,1.286l0.498,1.197
			c0.318,0.797,0.605,1.595,0.857,2.385c0.502,1.578,0.857,3.147,0.955,4.552c0.109,1.405-0.094,2.607-0.467,3.269
			c-0.381,0.657-0.773,0.942-1.627,1.321c-0.846,0.355-2.115,0.611-3.537,0.687c-2.877,0.153-6.236-0.297-9.566-1.003
			c-3.35-0.715-6.746-1.693-10.127-2.809c-1.691-0.56-3.383-1.153-5.068-1.776l-2.523-0.954l-1.428-0.533l-1.559-0.523
			c-4.184-1.346-8.689-2.159-13.303-2.231c-4.607-0.079-9.291,0.604-13.715,1.959c-4.432,1.351-8.592,3.345-12.393,5.72
			c-3.805,2.383-7.26,5.142-10.414,8.119c-1.912,1.809-3.705,3.707-5.414,5.666c0.02-0.027,0.035-0.054,0.055-0.08l0.359-0.466
			l0.391-0.487c1.105-1.354,2.363-2.726,3.695-4.099c2.672-2.751,5.635-5.501,8.652-8.366c3.018-2.875,6.115-5.84,9.104-9.265
			c1.488-1.72,2.953-3.562,4.301-5.673c1.334-2.111,2.596-4.518,3.322-7.443c0.354-1.459,0.555-3.046,0.492-4.672
			c-0.057-1.623-0.383-3.266-0.932-4.755c-0.271-0.746-0.596-1.458-0.955-2.127l-0.273-0.494l-0.34-0.563l-0.244-0.359
			c-0.135-0.197-0.295-0.434-0.418-0.59c-1.01-1.344-2.283-2.506-3.631-3.365c-2.729-1.734-5.512-2.357-7.988-2.646
			c-2.502-0.275-4.816-0.205-7.039-0.035c-4.424,0.35-8.549,1.16-12.408,1.662c-0.955,0.123-1.891,0.224-2.756,0.271
			c-0.854,0.05-1.678,0.031-2.166-0.044c-0.02-0.002-0.035-0.005-0.053-0.008c0.016-0.1,0.029-0.196,0.057-0.307
			c0.158-0.664,0.486-1.556,0.857-2.275l0.09-0.17l0.137-0.225c0.096-0.147,0.193-0.297,0.305-0.443
			c0.221-0.293,0.467-0.582,0.742-0.862c1.105-1.126,2.621-2.106,4.281-2.926c3.346-1.644,7.201-2.726,11.096-3.595
			c7.838-1.709,15.992-2.556,24.143-3.459c4.08-0.455,8.176-0.888,12.27-1.561c2.045-0.352,4.098-0.734,6.121-1.421
			c1.004-0.362,2.033-0.759,2.939-1.573c0.438-0.406,0.844-1.02,0.881-1.715c0.045-0.693-0.225-1.281-0.52-1.764l-0.863,0.504
			c0.209,0.4,0.332,0.816,0.273,1.156c-0.049,0.338-0.262,0.635-0.586,0.899c-0.666,0.522-1.613,0.851-2.551,1.103
			c-1.906,0.494-3.928,0.728-5.941,0.92c-4.041,0.363-8.133,0.494-12.229,0.647c-8.197,0.306-16.443,0.538-24.764,1.716
			c-4.156,0.619-8.348,1.428-12.52,3.092c-2.076,0.85-4.172,1.928-6.092,3.584c-0.478,0.416-0.938,0.873-1.373,1.367
			c-0.22,0.246-0.428,0.508-0.632,0.774l-0.297,0.411l-0.313,0.484c-0.64,1.062-1.184,2.039-1.668,3.32
			c-0.235,0.633-0.445,1.34-0.561,2.184c-0.105,0.838-0.12,1.881,0.277,3.041c0.381,1.162,1.27,2.252,2.156,2.875
			c0.89,0.642,1.736,0.971,2.479,1.201c1.499,0.441,2.739,0.547,3.933,0.629c1.186,0.071,2.299,0.072,3.387,0.057
			c4.318-0.086,8.334-0.407,12.113-0.271c1.875,0.064,3.676,0.239,5.229,0.604c1.555,0.354,2.807,0.936,3.465,1.549
			c0.34,0.307,0.547,0.605,0.715,0.939c0.029,0.049,0.002,0.033,0.012,0.049l0.154,0.297c0.061,0.102-0.055-0.09-0.039-0.062
			l0.012,0.024l0.02,0.049l0.045,0.097l0.076,0.188c0.096,0.25,0.164,0.487,0.215,0.714c0.182,0.902,0.094,1.641-0.285,2.688
			c-0.387,1.031-1.131,2.269-2.125,3.521c-0.992,1.258-2.209,2.536-3.535,3.793c-2.666,2.521-5.742,4.973-8.924,7.46
			c-3.188,2.495-6.508,5.021-9.848,7.849c-1.67,1.418-3.348,2.916-5.012,4.584l-0.64,0.654c-0.153,0.153-0.421,0.443-0.649,0.695
			c-0.467,0.521-0.924,1.07-1.367,1.646c-0.887,1.154-1.721,2.432-2.44,3.84c-0.151,0.293-0.296,0.598-0.437,0.904
			c0.308-2.806,0.535-5.632,0.641-8.49c0.148-4.334,0.055-8.738-0.591-13.25c-0.675-4.48-1.822-9.197-4.61-13.625
			c-0.699-1.096-1.517-2.154-2.443-3.131c-0.463-0.488-0.959-0.955-1.479-1.393c-0.26-0.219-0.523-0.432-0.798-0.635l-0.205-0.151
			l-0.116-0.087l-0.078-0.053l-0.312-0.209c-1.744-1.188-3.536-2.311-5.354-3.36c-3.629-2.11-7.422-3.866-11.004-5.512
			c-3.576-1.679-6.845-3.253-8.865-6.151c-2.064-2.9-2.933-6.878-3.433-10.783l-1,0.025c-0.139,2.016-0.188,4.055-0.011,6.13
			c0.178,2.069,0.602,4.204,1.516,6.256c0.902,2.056,2.348,3.923,3.945,5.435c1.6,1.525,3.299,2.781,4.938,3.988
			c3.295,2.383,6.396,4.651,9.26,7.178c1.433,1.258,2.812,2.556,4.138,3.908l0.265,0.267l0.066,0.065l0.018,0.018
			c-0.039-0.03-0.006-0.002-0.012-0.006l0.02,0.023l0.078,0.092c0.105,0.121,0.205,0.25,0.303,0.377
			c0.193,0.258,0.376,0.525,0.544,0.81c0.335,0.565,0.626,1.174,0.868,1.836c0.981,2.642,1.23,5.983,1.035,9.422
			c-0.194,3.454-0.813,7.039-1.66,10.61c-0.555,2.34-1.221,4.678-1.955,7.006c-0.381-0.607-0.766-1.215-1.19-1.807
			c-2.124-2.969-4.851-5.678-7.995-7.739c-3.146-2.069-6.65-3.444-10.087-4.166c-1.721-0.366-3.43-0.581-5.103-0.677
			c-0.836-0.045-1.666-0.067-2.484-0.06c-0.438-0.004-0.777,0.015-1.107,0.022l-1.064,0.039c-2.868,0.109-5.661,0.311-8.432,0.558
			C93.454,55.354,88,56.126,83.14,56.313c-1.204,0.041-2.349,0.023-3.354-0.068c-1-0.09-1.83-0.282-2.309-0.469
			c-0.473-0.207-0.65-0.26-0.947-0.688c-0.277-0.429-0.496-1.288-0.545-2.306c-0.119-2.008,0.357-4.713,0.777-7.284
			c0.449-2.599,0.988-5.224,1.539-7.866c1.083-5.293,2.322-10.637,2.85-16.223c0.12-1.397,0.184-2.814,0.122-4.256
			c-0.073-1.438-0.256-2.916-0.808-4.36c-0.524-1.433-1.613-2.843-3.075-3.479c-1.44-0.662-2.948-0.678-4.334-0.529l0.048,0.998
			c1.292,0.041,2.578,0.287,3.532,0.92c0.964,0.617,1.515,1.607,1.767,2.746c0.486,2.307,0.035,4.93-0.539,7.445
			c-1.228,5.082-3.164,10.096-5,15.189c-0.928,2.55-1.857,5.121-2.716,7.763c-0.43,1.327-0.841,2.646-1.226,4.04
			c-0.375,1.338-0.756,2.924-0.912,4.583c-0.154,1.67-0.165,3.562,0.518,5.668c0.344,1.042,0.891,2.113,1.619,3.056
			c0.725,0.946,1.615,1.75,2.521,2.363c1.832,1.227,3.635,1.814,5.277,2.242c1.647,0.409,3.198,0.643,4.689,0.812
			c2.984,0.332,5.779,0.442,8.523,0.56c2.738,0.108,5.41,0.204,8.043,0.349c2.627,0.143,5.235,0.334,7.764,0.602l0.959,0.104
			c0.346,0.039,0.681,0.071,0.916,0.113c0.529,0.074,1.045,0.168,1.55,0.273c1.008,0.213,1.961,0.492,2.846,0.834
			c3.568,1.373,5.864,3.643,7.437,6.789c0.781,1.574,1.357,3.383,1.721,5.306c0.182,0.96,0.309,1.95,0.376,2.934
			c0.035,0.491,0.054,0.981,0.056,1.452l-0.011,0.678l-0.019,0.295c-0.004,0.031-0.008,0.08-0.012,0.112l19.6-0.202
			c-0.004-0.082-0.008-0.146-0.012-0.214l7.387,2.583c0.314-1.208,0.525-2.203,0.757-3.279c0.146-0.688,0.274-1.369,0.407-2.052
			c0.295,2.31,0.928,4.496,1.754,6.445c1.188,2.801,2.72,5.198,4.396,7.331c0.842,1.066,1.725,2.068,2.656,3.027
			c0.467,0.479,0.943,0.945,1.447,1.41l0.779,0.698c0.293,0.25,0.512,0.442,0.963,0.79l5.707-7.766l9.928,3.31l-0.498,0.81
			c-0.209,0.354-0.381,0.635-0.652,1.168l21.764,9.717c-1.654,1.248-3.262,2.527-4.811,3.85c-1.861,1.592-3.654,3.232-5.398,4.928
			c-0.873,0.848-1.732,1.707-2.584,2.59l-1.277,1.346c-0.438,0.473-0.83,0.895-1.332,1.479l12.553,9.52
			c-0.006,0.012-0.012,0.025-0.018,0.037l-0.422,0.902l-0.504,1.211l-0.248,0.969l-0.115,1.309l-0.029,1
			c-0.014,0.639-0.049,1.391-0.033,1.939c0.031,0.479,0.055,1.006,0.098,1.445l0.189,1.086c0.283,1.334,0.787,1.762,1.365,1.791
			c1.123,0.232,2.244,0.451,3.365,0.656c2.244,0.408,4.498,0.766,6.775,1.062c4.549,0.611,9.188,0.939,14.006,0.844
			c1.205-0.023,2.424-0.078,3.656-0.168l0.93-0.076l1.008-0.098l0.871-0.109c0.371-0.049,0.723-0.104,1.033-0.16
			c2.6-0.449,5.025-1.117,7.291-1.844c2.268-0.715,4.363-1.549,6.336-2.316c1.975-0.781,3.836-1.463,5.574-2.08
			c1.744-0.604,3.379-1.045,4.918-1.281c1.541-0.268,2.994-0.316,4.469-0.119c2.939,0.336,6.168,1.865,9.086,4.131
			c2.979,2.27,5.713,5.377,8.809,8.611c1.566,1.596,3.25,3.273,5.414,4.562c1.08,0.627,2.309,1.125,3.576,1.293
			c1.271,0.174,2.521-0.01,3.605-0.416L287.178,157.686z M160.407,23.124c-0.002-0.032,0.004-0.086,0.006-0.127
			c0.016,0.041,0.031,0.082,0.037,0.119C160.485,23.31,160.415,23.302,160.407,23.124z"/>
		<path fill="#7F3FA5" d="M86.77,144.02l0.005,0.018l0.019-0.008C86.811,144.02,86.9,143.989,86.77,144.02z"/>
	</g>
	<circle fill="#7F3FA5" cx="147.848" cy="146.242" r="64.167"/>
	<g>
		<path fill="#B38DCE" d="M148.765,82.073c-1.841,0-3.657,0.097-5.458,0.248c32.881,2.772,47.973,21.379,51.707,27.92
			c3.736,6.541,6.334,22.553,11.203,22.553c4.867,0,5.713,13.447,5.713,13.447C211.93,110.803,184.202,82.073,148.765,82.073z"/>
		<path fill="#643189" d="M146.236,210.477c1.841,0,3.657-0.096,5.458-0.248c-32.881-2.771-47.972-21.379-51.708-27.92
			c-3.735-6.541-6.334-22.553-11.202-22.553c-4.867,0-5.714-13.447-5.714-13.447C83.07,181.749,110.799,210.477,146.236,210.477z"/>
	</g>
	<path fill="#FFFFFF" d="M197.461,146.241c0,0-17.027,24.83-49.613,24.83c-32.588,0-49.613-24.83-49.613-24.83
		s17.025-24.832,49.613-24.832C180.434,121.409,197.461,146.241,197.461,146.241z"/>
	<g>
		<circle fill="#F97C1E" cx="147.848" cy="146.241" r="21.643"/>
		<circle fill="#7F3FA5" cx="148.09" cy="147.481" r="9.771"/>
		<circle fill="#452363" cx="147.848" cy="146.24" r="9.112"/>
		<circle fill="#F5F5F5" cx="158.698" cy="136.027" r="2.606"/>
	</g>
	<g>
		<path fill="#452363" d="M187.643,188.12c-0.713-1.105-4.182-0.141-7.748,2.16c-3.564,2.299-7.865,6.594-7.152,7.701
			c0.715,1.105,6.172-1.396,9.736-3.695C186.045,191.987,188.354,189.227,187.643,188.12z"/>
		<path fill="#452363" d="M159.688,201.895c-3.928,0.965-7.941,0.297-7.441,2.334c0.502,2.041,6.328,2.012,10.256,1.049
			c3.928-0.967,6.703-3.4,6.203-5.439C168.208,197.799,163.616,200.93,159.688,201.895z"/>
		<path fill="#452363" d="M164.176,193.069c-3.102,0.762-6.219,0.455-5.895,1.775c0.326,1.322,4.879,1.113,7.98,0.354
			c3.104-0.762,5.352-2.451,5.025-3.773C170.967,190.102,167.276,192.307,164.176,193.069z"/>
		<path fill="#452363" d="M128.495,200.02c-3.063-0.906-5.6-2.744-5.986-1.439c-0.385,1.309,3.652,3.424,6.715,4.33
			c3.062,0.908,5.855,0.584,6.242-0.723C135.854,200.885,131.555,200.926,128.495,200.02z"/>
	</g>
	<g>
		<path fill="#B38DCE" d="M107.768,115.016c-4.487,2.893-9.898,8.299-9.002,9.689c0.898,1.395,7.766-1.756,12.253-4.648
			c4.487-2.895,7.396-6.365,6.499-7.76C116.62,110.905,112.254,112.122,107.768,115.016z"/>
		<path fill="#B38DCE" d="M122.361,99.288c-0.714-1.107-4.183-0.141-7.748,2.158s-7.866,6.596-7.153,7.701
			c0.715,1.107,6.172-1.396,9.737-3.693C120.763,103.153,123.075,100.393,122.361,99.288z"/>
		<path fill="#B38DCE" d="M128.888,107.817c-3.566,2.299-7.867,6.594-7.153,7.701c0.713,1.105,6.171-1.396,9.737-3.695
			c3.565-2.299,5.877-5.059,5.163-6.166C135.922,104.549,132.454,105.516,128.888,107.817z"/>
		<path fill="#B38DCE" d="M134.741,98.864c2.079-1.34,3.338-3.086,2.814-3.898c-0.524-0.814-2.635-0.387-4.713,0.955
			c-2.08,1.34-4.481,4.007-3.957,4.822C129.411,101.554,132.663,100.204,134.741,98.864z"/>
	</g>
</g>
</svg>
