<svg version="1.1" id="moon" width="100%" height="100%" viewBox="0 0 50% 50%" enable-background="new 0 0 50% 50%" xml:space="preserve" preserveAspectRatio="xMinYMin meet">
<g>
	<circle id="body" fill="#C6AF24" cx="225" cy="225" r="225"/>
	<path id="mouth" fill="#F5F5F5" d="M52.167,292.167H415.5c0,0-155.503,28-180.5,28C205.478,320.167,52.167,292.167,52.167,292.167z
		"/>
	<path id="left-eye" fill="#F5F5F5" d="M182.833,140.929c0,0,1.333,10-44.667,10s-46-10-46-10s9.732-39.428,45.042-39.428
		S182.833,140.929,182.833,140.929z"/>
	<path id="right-eye" fill="#F5F5F5" d="M375.497,140.929c0,0,1.334,10-44.666,10s-46.002-10-46.002-10s9.731-39.428,45.043-39.428
		S375.497,140.929,375.497,140.929z"/>
	<path id="nose" fill="#F5F5F5" d="M233.5,61.167c0,0,9.832,168.999,9.666,177s-18.333,13-18.333,13s32.5,3.999,36.333-1.667
		S233.5,61.167,233.5,61.167z"/>
</g>
</svg>
