<?xml version="1.0" encoding="utf-8"?>
<!-- Generator: Adobe Illustrator 15.0.0, SVG Export Plug-In . SVG Version: 6.00 Build 0)  -->
<!DOCTYPE svg PUBLIC "-//W3C//DTD SVG 1.1//EN" "http://www.w3.org/Graphics/SVG/1.1/DTD/svg11.dtd">
<svg version="1.1" id="Layer_1" xmlns="http://www.w3.org/2000/svg" xmlns:xlink="http://www.w3.org/1999/xlink" x="0px" y="0px"
	 width="271.75px" height="53.781px" viewBox="0 0 271.75 53.781" enable-background="new 0 0 271.75 53.781" xml:space="preserve">
<g>
	<path fill="#F5F5F5" d="M61.529,16.32c2.964-2.456,6.648-3.218,9.611-3.218c2.328,0,4.156,0.423,5.215,0.889
		c0.169,2.371,0.296,4.784,0.38,7.199c-0.72,0.084-1.566,0.168-2.37,0.254l-0.721-4.574c-0.042-0.338-0.168-0.551-0.338-0.635
		c-0.932-0.592-1.87-0.762-3.267-0.762c-2.371,0-4.827,0.804-6.69,2.71c-2.371,2.37-3.4,5.469-3.4,9.448
		c0,3.641,0.635,6.014,2.625,8.299c1.566,1.777,4.318,2.881,7.113,2.881c2.499,0,5.299-0.892,7.29-1.778
		c0.169,0.676,0.381,1.479,0.508,2.157c-3.218,1.312-5.935,2.074-8.433,2.074c-2.879,0-5.843-0.762-8.171-2.539
		c-2.709-2.117-4.488-5.76-4.488-10.078C56.394,22.722,58.48,18.86,61.529,16.32"/>
	<path fill="#F5F5F5" d="M79.222,39.021l2.046-0.127c0.084,0,0.169-0.084,0.169-0.17V16.243L78.586,16.2
		c-0.042-0.593-0.367-1.27-0.325-1.82c1.651-0.17,6.055-0.974,6.394-0.974c0.085,0,0.127,0.042,0.127,0.168
		c0,3.938-0.084,6.901-0.127,11.559l0.169,0.042c4.488-2.413,5.335-2.539,6.901-2.539c2.117,0,3.811,1.48,4.742,3.047
		c0.466,0.847,0.593,1.948,0.593,3.133c0,3.219-0.042,6.774-0.084,10.078l2.794,0.084c0,0.594-0.042,1.271-0.042,1.863h-4.362
		c-1.355,0-2.964,0.041-4.276,0.041c0-0.593,0-1.229,0.042-1.863l2.499-0.125c0.084,0,0.127-0.084,0.127-0.17
		c0.042-2.33,0.042-5.418,0.042-7.748c0-2.074-0.042-3.431-0.635-4.447c-0.719-1.143-1.905-1.354-2.667-1.354
		c-1.736,0-4.064,1.101-5.8,2.371c-0.042,3.305-0.085,8.172-0.085,11.348l3.26,0.086c0,0.593-0.042,1.271-0.042,1.862H82.92
		c-1.229,0-2.471,0.041-3.741,0.041C79.179,40.25,79.179,39.613,79.222,39.021"/>
	<path fill="#F5F5F5" d="M108.55,22.637c2.202,0,3.895,0.803,4.997,2.2c1.228,1.524,1.608,3.599,1.608,5.462
		c-0.212,0.553-1.016,1.524-1.439,1.567c-2.498,0.085-8.087,0.126-10.712,0.126c-0.085,2.33,0.38,4.107,1.354,5.25
		c1.271,1.439,2.625,1.695,4.362,1.695c1.947,0,4.148-0.765,5.631-1.356c0.212,0.593,0.381,1.312,0.466,1.905
		c-2.371,1.145-4.911,1.777-6.732,1.777c-5.505,0-8.553-3.599-8.553-8.51C99.531,27.209,103.088,22.637,108.55,22.637
		 M104.909,25.937c-0.551,0.637-1.651,1.949-1.778,4.108c2.413,0,5.843-0.042,8.256-0.126c0.339-0.043,0.55-0.172,0.55-0.467
		c0-1.438-0.508-2.795-1.143-3.557c-0.636-0.762-1.525-1.271-2.71-1.271C106.602,24.625,105.628,25.134,104.909,25.937"/>
	<path fill="#F5F5F5" d="M116.137,25.72c0-0.551-0.735-1.433-0.735-1.941c1.694-0.254,5.752-1.101,6.048-1.101
		c0.085,0,0.127,0.042,0.127,0.127c0.127,0.72,0.254,1.524,0.339,2.286l0.169,0.043c4.022-2.371,4.911-2.497,6.351-2.497
		c2.371,0,3.896,1.861,4.531,2.836h0.126c4.064-2.583,5.08-2.753,6.774-2.753c2.371,0,3.811,1.695,4.486,2.753
		c0.594,0.974,0.892,2.032,0.892,3.218c0,3.133-0.085,6.942-0.128,10.203l2.71,0.086c0,0.593,0,1.271-0.042,1.862h-4.361
		c-1.439,0-2.837,0.041-4.021,0.041c0-0.593,0-1.271,0.041-1.862l2.416-0.127c0.082,0,0.125-0.127,0.125-0.17
		c0-2.836,0.043-6.097,0.043-8.382c0-1.438-0.086-2.584-0.508-3.516c-0.594-1.228-1.695-1.651-2.881-1.651
		c-1.566,0-3.556,1.102-5.039,2.202c0.043,3.218-0.041,7.875-0.041,11.476l2.879,0.127c0,0.593,0,1.271-0.043,1.862h-4.699
		c-1.312,0-2.752,0.041-3.854,0.041c0-0.634,0-1.271,0.042-1.862l2.371-0.168c0.084,0,0.127-0.086,0.127-0.17
		c0.042-2.795,0.042-6.014,0.042-8.639c0-1.609,0-2.583-0.508-3.513c-0.678-1.186-1.693-1.441-2.667-1.441
		c-1.397,0-3.556,0.975-5.165,2.287C122,30.977,122,35.253,121.958,38.854l3.006,0.127c0,0.593,0,1.271-0.042,1.862h-4.658
		c-1.312,0-2.921,0.041-4.149,0.041c0-0.634,0.043-1.312,0.043-1.903l2.498-0.127c0.084,0,0.17-0.086,0.17-0.17L118.782,25.6
		L116.137,25.72z"/>
	<path fill="#F5F5F5" d="M146.996,46.432l2.456-0.172c0.085,0,0.169-0.085,0.169-0.254V25.601l-3.219-0.044
		c0-0.55,0-1.186,0.043-1.693c1.652-0.295,5.548-1.271,5.843-1.271c0.085,0,0.085,0.044,0.085,0.085
		c0.128,0.719,0.255,1.565,0.339,2.244l0.211,0.042c4.193-2.159,4.828-2.327,6.606-2.327c4.275,0,6.859,4.359,6.814,8.085
		c0,2.032-0.254,3.601-1.016,5.207c-0.678,1.567-1.523,2.881-3.344,4.108c-0.932,0.635-2.797,1.228-4.701,1.228
		c-1.819,0-3.133-0.382-4.318-0.975l-0.17,0.085c0.043,2.371,0,3.558,0,5.884l2.837,0.086c0,0.592,0,1.229-0.042,1.863h-4.402
		c-1.396,0-2.965,0.041-4.234,0.041C146.953,47.657,146.953,47.023,146.996,46.432 M161.984,27.379
		c-0.721-1.271-2.075-2.161-3.685-2.161c-1.565,0-3.557,0.678-5.335,1.99c-0.043,3.176-0.085,6.901-0.085,9.866
		c0,0.931,2.202,2.158,4.277,2.158c1.271,0,2.665-0.422,3.683-1.438c1.271-1.313,2.032-3.218,2.032-6.013
		C162.873,30.214,162.661,28.732,161.984,27.379"/>
	<path fill="#F5F5F5" d="M170.24,39.275c-1.863-1.694-2.838-3.979-2.838-6.944c0-3.006,1.145-5.758,3.6-7.748
		c1.609-1.312,3.77-1.946,5.803-1.946c1.989,0,3.727,0.465,5.25,1.607c2.116,1.609,3.303,3.98,3.303,7.324
		c0,3.388-1.398,6.183-3.642,7.918c-1.608,1.271-3.388,1.777-5.632,1.777C173.671,41.266,171.639,40.545,170.24,39.275
		 M179.895,38.005c1.397-1.522,1.905-3.429,1.905-6.267c0-2.371-0.508-4.318-1.692-5.631c-1.06-1.144-2.16-1.566-3.601-1.566
		c-1.187,0-2.582,0.423-3.557,1.439c-1.354,1.398-1.948,3.43-1.948,6.012c0,2.752,0.596,4.615,1.948,6.013
		c0.847,0.89,2.032,1.397,3.388,1.397C177.65,39.402,178.921,39.021,179.895,38.005"/>
	<path fill="#F5F5F5" d="M186.203,39.064l2.456-0.127c0.085,0,0.127-0.086,0.127-0.127V25.515l-3.091-0.042
		c0-0.551,0.043-1.186,0.043-1.736c1.693-0.254,5.631-1.1,5.886-1.1c0.042,0,0.084,0.041,0.084,0.126
		c0.043,1.101,0.084,3.431,0.17,5.672h0.168c2.415-4.699,3.938-5.798,5.716-5.798c0.977,0,1.949,0.21,2.543,0.465
		c0,0.812-0.359,2.193-0.847,2.787c-0.076,0.094-0.194,0.128-0.313,0.101c-0.461-0.107-1.522-0.094-2.186-0.094
		c-0.425,0-0.848,0.17-1.439,0.637c-0.805,0.634-1.694,1.861-2.795,3.938c-0.466,0.973-0.679,2.496-0.72,3.895
		c0,1.482-0.043,3.177-0.043,4.529l4.021,0.127c0,0.553,0,1.229-0.082,1.822h-5.379c-1.438,0-3.049,0.041-4.402,0.041
		C186.119,40.291,186.162,39.613,186.203,39.064"/>
	<path fill="#F5F5F5" d="M201.25,25.841c0-0.552,0.408-1.598,0.408-2.146c1.777-0.212,5.363-1.058,5.701-1.058
		c0.084,0,0.084,0.041,0.084,0.126c0,4.699-0.084,11.601-0.084,16.131l2.964,0.086c0,0.633,0,1.271-0.041,1.862h-4.7
		c-1.439,0-3.006,0.041-4.445,0.041c0-0.634,0-1.271,0.041-1.862l2.838-0.127c0.086,0,0.17-0.084,0.17-0.211V25.601L201.25,25.841z
		 M207.698,16.327c0,1.312-0.933,2.245-2.243,2.245c-1.312,0-2.245-1.017-2.245-2.202c0-1.186,0.847-2.244,2.372-2.244
		C207.189,14.125,207.741,15.396,207.698,16.327"/>
	<path fill="#F5F5F5" d="M259.059,38.895c0.043-3.261,0.127-7.07,0.127-10.203c0-1.187-0.295-2.245-0.888-3.218
		c-0.679-1.058-2.116-2.753-4.487-2.753c-1.694,0-2.711,0.17-6.774,2.753h-0.128c-0.637-0.975-2.159-2.836-4.53-2.836
		c-1.438,0-2.329,0.126-6.353,2.497l-0.168-0.043c-0.086-0.762-0.213-1.566-0.34-2.286c0-0.085-0.041-0.127-0.127-0.127
		c-0.298,0-4.148,0.847-5.843,1.101c0,0.509-0.044,1.186-0.044,1.736l3.219,0.085l0.043,13.083c0,0.084-0.084,0.17-0.171,0.17
		l-5.122,0.041c-0.212,0-0.296-0.168-0.296-0.594c0-4.953,0.084-10.328,0.084-15.115c0-0.084-0.043-0.127-0.084-0.127
		c-0.552,0-4.362,0.085-5.887,0.085c-0.042,0.635-0.084,1.354-0.084,1.99l2.752,0.084v11.517c-1.778,1.355-3.515,2.16-5.039,2.16
		c-1.187,0-2.159-0.381-2.879-1.522c-0.677-1.103-0.677-2.289-0.636-4.065c0-3.515,0.043-6.902,0.084-10.12
		c0-0.084,0-0.127-0.084-0.127c-0.51,0-4.233,0.127-5.76,0.169c0,0.594-0.041,1.313-0.041,1.906l2.582,0.084
		c0,3.049-0.041,6.564-0.041,10.246c0,2.881,2.625,5.801,5.461,5.801c1.651,0,2.584-0.084,6.31-2.285l0.212,0.041
		c0.466,1.06,0.932,1.822,1.355,2.244c1.49,0,7.41-0.422,8.723-0.422h4.656c0.043-0.593,0.043-1.271,0.043-1.863l-3.006-0.127
		c0.043-3.6,0.043-7.875,0.125-11.475c1.61-1.312,3.771-2.287,5.168-2.287c0.974,0,1.988,0.256,2.666,1.441
		c0.509,0.93,0.509,1.902,0.509,3.513c0,2.625,0,5.843-0.041,8.638c0,0.084-0.043,0.17-0.128,0.17l-2.371,0.168
		c-0.041,0.594-0.041,1.229-0.041,1.863c1.099,0,2.54-0.041,3.852-0.041h4.7c0.042-0.593,0.042-1.271,0.042-1.863l-2.879-0.127
		c0-3.6,0.084-8.256,0.041-11.475c1.482-1.101,3.473-2.202,5.039-2.202c1.186,0,2.287,0.424,2.88,1.651
		c0.423,0.932,0.508,2.076,0.508,3.516c0,2.285-0.044,5.545-0.044,8.383c0,0.041-0.041,0.168-0.126,0.168l-2.413,0.127
		c-0.042,0.594-0.042,1.271-0.042,1.863c1.187,0,2.581-0.041,4.023-0.041h4.36c0.041-0.593,0.041-1.271,0.041-1.863L259.059,38.895z
		"/>
	<path fill="#53BAEA" d="M25.359,32.818h-7.352v1.361h1.101v16.024c0,1.423,1.153,2.575,2.575,2.575s2.576-1.152,2.576-2.575V34.182
		h1.1V32.818z"/>
	<path fill="#CC65A7" d="M17.471,32.832l-5.199-5.199l-0.963,0.963l0.778,0.778L0.754,40.705c-1.006,1.007-1.006,2.638,0,3.645
		c1.005,1.004,2.636,1.004,3.642,0l11.332-11.332l0.778,0.778L17.471,32.832z"/>
	<path fill="#E9E612" d="M31.087,27.659l-5.199,5.198l0.964,0.963l0.778-0.777l11.331,11.331c1.006,1.007,2.637,1.007,3.643,0
		c1.005-1.005,1.005-2.638,0-3.642L31.273,29.4l0.778-0.778L31.087,27.659z"/>
	<path fill="#E21D34" d="M18.007,21.584h7.352V20.22h-1.1V4.195c0-1.422-1.153-2.575-2.575-2.575c-1.423,0-2.576,1.153-2.576,2.575
		V20.22h-1.101V21.584z"/>
	<path fill="#BCD631" d="M12.279,26.742l5.199-5.199l-0.964-0.964l-0.778,0.779L4.405,10.027c-1.006-1.006-2.637-1.006-3.642,0
		c-1.006,1.005-1.006,2.636,0,3.642L12.095,25l-0.778,0.779L12.279,26.742z"/>
	<path fill="#9951A0" d="M31.087,26.742l-5.199-5.199l0.964-0.964l0.778,0.779l11.331-11.332c1.006-1.006,2.637-1.006,3.643,0
		c1.005,1.005,1.005,2.636,0,3.642L31.273,25l0.778,0.779L31.087,26.742z"/>
	<path fill="#BCBCBC" d="M11.987,15.031c1.926-1.536,4.222-2.625,6.736-3.109V9.397c-3.197,0.527-6.111,1.891-8.507,3.863
		L11.987,15.031z"/>
	<path fill="#BCBCBC" d="M26.27,12.323c2.257,0.696,4.286,1.902,5.976,3.469l1.764-1.764c-2.153-2.017-4.799-3.513-7.74-4.284
		V12.323z"/>
	<path fill="#BCBCBC" d="M6.112,27.2c0-2.173,0.448-4.241,1.252-6.12l-1.869-1.868C4.305,21.62,3.631,24.331,3.631,27.2
		c0,2.829,0.652,5.503,1.81,7.887l1.876-1.877C6.542,31.359,6.112,29.331,6.112,27.2"/>
	<path fill="#BCBCBC" d="M18.723,42.479c-2.553-0.49-4.882-1.603-6.826-3.176l-1.766,1.766c2.413,2.012,5.357,3.402,8.592,3.936
		V42.479z"/>
	<path fill="#BCBCBC" d="M32.319,38.543c-1.705,1.6-3.76,2.829-6.049,3.535v2.58c2.974-0.781,5.646-2.303,7.812-4.354L32.319,38.543
		z"/>
	<path fill="#BCBCBC" d="M38.373,20.337l-1.936,1.935c0.518,1.551,0.809,3.205,0.809,4.929c0,1.688-0.275,3.306-0.771,4.826
		l1.938,1.937c0.845-2.088,1.315-4.37,1.315-6.763C39.728,24.77,39.245,22.453,38.373,20.337"/>
	<path fill="#F5F5F5" d="M21.68,23.87c-1.84,0-3.33,1.492-3.33,3.33c0,1.84,1.49,3.329,3.33,3.329c1.839,0,3.33-1.489,3.33-3.329
		C25.009,25.362,23.519,23.87,21.68,23.87 M21.68,28.452c-0.735,0-1.331-0.597-1.331-1.332c0-0.734,0.596-1.33,1.331-1.33
		c0.735,0,1.33,0.596,1.33,1.33C23.009,27.855,22.415,28.452,21.68,28.452 M23.107,26.069c-0.258,0-0.467-0.208-0.467-0.467
		c0-0.259,0.209-0.469,0.467-0.469c0.258,0,0.468,0.21,0.468,0.469C23.576,25.861,23.367,26.069,23.107,26.069"/>
</g>
</svg>
