<?xml version="1.0" encoding="utf-8"?>
<!-- Generator: Adobe Illustrator 15.0.0, SVG Export Plug-In . SVG Version: 6.00 Build 0)  -->
<!DOCTYPE svg PUBLIC "-//W3C//DTD SVG 1.1//EN" "http://www.w3.org/Graphics/SVG/1.1/DTD/svg11.dtd">
<svg version="1.1" id="Layer_1" xmlns="http://www.w3.org/2000/svg" xmlns:xlink="http://www.w3.org/1999/xlink" x="0px" y="0px"
	 width="200px" height="240px" viewBox="0 0 200 240" enable-background="new 0 0 200 240" xml:space="preserve">
<g>
	<path fill="#FFFFFF" stroke="#000000" stroke-miterlimit="10" d="M50.769,76.164c0,0-2.689,3.966-8.657,3.966
		c-5.966,0-8.783-3.966-8.783-3.966l4.957-42.547h7.526L50.769,76.164z"/>
	<circle fill="#FFFFFF" stroke="#000000" stroke-miterlimit="10" cx="42.048" cy="28.453" r="10.442"/>
	<path fill="#FFFFFF" stroke="#000000" stroke-miterlimit="10" d="M165.833,76.164c0,0-2.688,3.966-8.656,3.966
		c-5.967,0-8.783-3.966-8.783-3.966l4.957-42.547h7.525L165.833,76.164z"/>
	<circle fill="#FFFFFF" stroke="#000000" stroke-miterlimit="10" cx="157.112" cy="28.453" r="10.442"/>
	<path fill="#FFFFFF" stroke="#000000" stroke-miterlimit="10" d="M177.314,240V102.807c0-35.201-34.616-63.734-77.319-63.734
		c-42.692,0-77.31,28.534-77.31,63.734V240H177.314L177.314,240z"/>
	<path fill="#FFFFFF" stroke="#000000" stroke-miterlimit="10" d="M164.99,240l-10-62.898c0,0-24.423-38.51-54.552-38.51
		c-30.122,0-54.545,38.51-54.545,38.51l-10,62.898H164.99z"/>
	<path fill="none" stroke="#000000" stroke-miterlimit="10" d="M58.092,22.573c0,0,20.315,12.483,41.907,4.001
		c21.593-8.482,41.186,3.978,41.186,3.978"/>
	<path fill="#FFFFFF" stroke="#000000" stroke-miterlimit="10" d="M167.555,103.369c0,9.972-8.084,18.056-18.057,18.056H51.384
		c-9.973,0-18.057-8.083-18.057-18.056l0,0c0-9.972,8.084-18.055,18.057-18.055h98.114
		C159.471,85.313,167.555,93.397,167.555,103.369L167.555,103.369z"/>
	<path fill="none" stroke="#000000" stroke-miterlimit="10" d="M139.185,19.749c0,0-6.116,17.321-19.296,11.803
		c-13.181-5.518-18.296-14.089-36.814-14.089c-18.518,0-26.278,17.222-26.278,17.222"/>
	<circle fill="#FFFFFF" stroke="#000000" stroke-miterlimit="10" cx="48.448" cy="102.818" r="8.042"/>
	<circle fill="#FFFFFF" stroke="#000000" stroke-miterlimit="10" cx="100.031" cy="102.818" r="8.042"/>
	<circle fill="#FFFFFF" stroke="#000000" stroke-miterlimit="10" cx="150.67" cy="102.818" r="8.042"/>
	<path fill="#FFFFFF" stroke="#000000" stroke-miterlimit="10" d="M127.074,162.535c0,9.186-26.34,8.631-26.34,8.631
		s-26.34,0.555-26.34-8.631s11.793-16.631,26.34-16.631S127.074,153.35,127.074,162.535z"/>
	<rect x="22.686" y="134.295" fill="#FFFFFF" stroke="#000000" stroke-miterlimit="10" width="16.036" height="9.047"/>
	<rect x="161.278" y="134.295" fill="#FFFFFF" stroke="#000000" stroke-miterlimit="10" width="16.036" height="9.047"/>
</g>
</svg>
