<?xml version="1.0" encoding="utf-8"?>
<!-- Generator: Adobe Illustrator 15.0.0, SVG Export Plug-In . SVG Version: 6.00 Build 0)  -->
<!DOCTYPE svg PUBLIC "-//W3C//DTD SVG 1.1//EN" "http://www.w3.org/Graphics/SVG/1.1/DTD/svg11.dtd">
<svg version="1.1" id="Layer_1" xmlns="http://www.w3.org/2000/svg" xmlns:xlink="http://www.w3.org/1999/xlink" x="0px" y="0px"
	 width="200px" height="240px" viewBox="0 0 200 240" enable-background="new 0 0 200 240" xml:space="preserve">
<rect x="82.278" y="214.662" fill="#FFFFFF" stroke="#000000" stroke-miterlimit="10" width="31.3" height="25.338"/>
<path fill="#FFFFFF" stroke="#000000" stroke-miterlimit="10" d="M57.439,68.666c0,0,0.853,4.443-3.132,8.428
	c-3.983,3.983-8.512,3.216-8.512,3.216L20.698,48.593l5.025-5.024L57.439,68.666z"/>
<circle fill="#FFFFFF" stroke="#000000" stroke-miterlimit="10" cx="19.762" cy="42.633" r="9.859"/>
<path fill="#FFFFFF" stroke="#000000" stroke-miterlimit="10" d="M141.08,68.666c0,0-0.854,4.443,3.132,8.428
	c3.983,3.983,8.513,3.216,8.513,3.216l25.096-31.716l-5.023-5.024L141.08,68.666z"/>
<circle fill="#FFFFFF" stroke="#000000" stroke-miterlimit="10" cx="178.757" cy="42.633" r="9.859"/>
<path fill="#FFFFFF" stroke="#000000" stroke-miterlimit="10" d="M91.705,57.358c0,0,2.539,3.745,8.174,3.745
	c5.633,0,8.294-3.745,8.294-3.745l-4.681-40.173h-7.106L91.705,57.358z"/>
<circle fill="#FFFFFF" stroke="#000000" stroke-miterlimit="10" cx="99.938" cy="12.309" r="9.859"/>
<polygon fill="#FFFFFF" stroke="#000000" stroke-miterlimit="10" points="73.535,217.38 3.645,128.615 51.299,39.852 
	146.609,39.852 194.264,128.615 124.374,217.38 "/>
<polygon fill="#FFFFFF" stroke="#000000" stroke-miterlimit="10" points="78.255,147.374 58.528,113.208 78.255,79.04 
	117.708,79.04 137.436,113.208 117.708,147.374 "/>
<circle fill="#FFFFFF" stroke="#000000" stroke-miterlimit="10" cx="97.982" cy="113.207" r="20.19"/>
<path fill="#FFFFFF" stroke="#000000" stroke-miterlimit="10" d="M44.929,156.991h109.715
	C154.645,156.991,101.449,214.736,44.929,156.991z"/>
</svg>
