<?xml version="1.0" encoding="utf-8"?>
<!-- Generator: Adobe Illustrator 15.0.0, SVG Export Plug-In . SVG Version: 6.00 Build 0)  -->
<!DOCTYPE svg PUBLIC "-//W3C//DTD SVG 1.1//EN" "http://www.w3.org/Graphics/SVG/1.1/DTD/svg11.dtd">
<svg version="1.1" id="Layer_1" xmlns="http://www.w3.org/2000/svg" xmlns:xlink="http://www.w3.org/1999/xlink" x="0px" y="0px"
	 width="200px" height="240px" viewBox="0 0 200 240" enable-background="new 0 0 200 240" xml:space="preserve">
<path fill="#FFFFFF" stroke="#000000" stroke-miterlimit="10" d="M44.567,70.234L31.588,51.129l-7.21,19.105l-9.293-57.116
	l-5.593,5.85V87.83l11.521,26.143C21.013,113.973,32.929,84.305,44.567,70.234z"/>
<path fill="#FFFFFF" stroke="#000000" stroke-miterlimit="10" d="M155.427,70.234l12.978-19.105l7.209,19.105l9.295-57.116
	l5.593,5.85V87.83l-11.521,26.143C178.979,113.973,167.064,84.305,155.427,70.234z"/>
<rect x="61.45" y="205.503" fill="#FFFFFF" stroke="#000000" stroke-miterlimit="10" width="31.677" height="34.497"/>
<rect x="107.988" y="205.503" fill="#FFFFFF" stroke="#000000" stroke-miterlimit="10" width="31.677" height="34.497"/>
<path fill="#FFFFFF" stroke="#000000" stroke-miterlimit="10" d="M185.174,132.348c0,49.127,7.53,88.952-85.044,88.952
	c-92.575,0-85.044-39.825-85.044-88.952c0-49.13,38.077-88.955,85.044-88.955C147.1,43.393,185.174,83.218,185.174,132.348z"/>
<path fill="#FFFFFF" stroke="#000000" stroke-miterlimit="10" d="M63.76,118.441c0,5.583-8.48,7.94-13.821,7.94h-2.387
	c-5.34,0-9.668-4.527-9.668-10.112V100.21c0-5.586,4.328-10.114,9.668-10.114h2.387c5.341,0,13.821,6.699,13.821,12.286V118.441z"/>
<path fill="#FFFFFF" stroke="#000000" stroke-miterlimit="10" d="M133.73,118.441c0,5.583,8.479,7.94,13.82,7.94h2.387
	c5.34,0,9.668-4.527,9.668-10.112V100.21c0-5.586-4.328-10.114-9.668-10.114h-2.387c-5.342,0-13.82,6.699-13.82,12.286V118.441z"/>
<path fill="#FFFFFF" stroke="#000000" stroke-miterlimit="10" d="M48.746,127.587c0,0-6.561,44.745,51.311,44.745
	c57.873,0,48.689-44.745,48.689-44.745"/>
</svg>
