<?xml version="1.0" encoding="utf-8"?>
<!-- Generator: Adobe Illustrator 15.0.0, SVG Export Plug-In . SVG Version: 6.00 Build 0)  -->
<!DOCTYPE svg PUBLIC "-//W3C//DTD SVG 1.1//EN" "http://www.w3.org/Graphics/SVG/1.1/DTD/svg11.dtd">
<svg version="1.1" id="Layer_1" xmlns="http://www.w3.org/2000/svg" xmlns:xlink="http://www.w3.org/1999/xlink" x="0px" y="0px"
	 width="200px" height="240px" viewBox="0 0 200 240" enable-background="new 0 0 200 240" xml:space="preserve">
<g>
	<polygon fill="#FFFFFF" stroke="#000000" stroke-miterlimit="10" points="158.941,240.112 46.812,240.112 56.812,204.937 
		148.941,204.937 	"/>
	<ellipse fill="#FFFFFF" stroke="#000000" stroke-miterlimit="10" cx="30.137" cy="85.993" rx="9.953" ry="31.064"/>
	<ellipse fill="#FFFFFF" stroke="#000000" stroke-miterlimit="10" cx="168.943" cy="85.993" rx="9.954" ry="31.064"/>
	<path fill="#FFFFFF" stroke="#000000" stroke-miterlimit="10" d="M186.317,220.112H13.632l20-196.295c0,0,19.964-10,67.574-10
		c47.611,0,65.111,10,65.111,10L186.317,220.112z"/>
	<polygon fill="#FFFFFF" stroke="#000000" stroke-miterlimit="10" points="19.098,166.96 13.683,220.112 186.368,220.112 
		180.953,166.96 	"/>
	<polygon fill="#FFFFFF" stroke="#000000" stroke-miterlimit="10" points="159.942,201.454 36.887,201.454 26.887,185.927 
		169.942,185.927 	"/>
	<polyline fill="#FFFFFF" stroke="#000000" stroke-miterlimit="10" points="81.919,70.749 56.368,85.993 46.812,166.112 	"/>
	<polyline fill="#FFFFFF" stroke="#000000" stroke-miterlimit="10" points="116.435,70.749 141.985,85.993 151.541,166.112 	"/>
	<path fill="#FFFFFF" stroke="#000000" stroke-miterlimit="10" d="M99.975,1.888c9.972,0,18.056,8.084,18.056,18.056v98.115
		c0,9.972-8.084,18.056-18.056,18.056l0,0c-9.973,0-18.057-8.084-18.057-18.056V19.944C81.919,9.972,90.003,1.888,99.975,1.888
		L99.975,1.888z"/>
	<circle fill="#FFFFFF" stroke="#000000" stroke-miterlimit="10" cx="99.974" cy="120.994" r="8.042"/>
	<path fill="#FFFFFF" stroke="#000000" stroke-miterlimit="10" d="M99.973,47.211c13,0,23.54,10.54,23.54,23.537
		c0,13.001-10.54,23.54-23.54,23.54c-13.001,0-23.537-10.539-23.537-23.54C76.436,57.751,86.972,47.211,99.973,47.211z"/>
	<circle fill="#FFFFFF" stroke="#000000" stroke-miterlimit="10" cx="99.974" cy="70.749" r="10.127"/>
	<circle fill="#FFFFFF" stroke="#000000" stroke-miterlimit="10" cx="99.974" cy="18.773" r="8.042"/>
	<polygon fill="#FFFFFF" stroke="#000000" stroke-miterlimit="10" points="81.646,215.798 89.517,227.464 109.414,227.464 
		116.905,215.798 	"/>
	<path fill="#FFFFFF" stroke="#000000" stroke-miterlimit="10" d="M31.835,41.455c0,0,21.756-13.01,22.682,0
		c0.926,13.01,24.206,19.167,24.206,19.167"/>
	<path fill="#FFFFFF" stroke="#000000" stroke-miterlimit="10" d="M167.989,41.455c0,0-21.755-13.01-22.681,0
		c-0.926,13.01-24.206,19.167-24.206,19.167"/>
</g>
</svg>
