<?xml version="1.0" encoding="utf-8"?>
<!-- Generator: Adobe Illustrator 15.0.0, SVG Export Plug-In . SVG Version: 6.00 Build 0)  -->
<!DOCTYPE svg PUBLIC "-//W3C//DTD SVG 1.1//EN" "http://www.w3.org/Graphics/SVG/1.1/DTD/svg11.dtd">
<svg version="1.1" id="Layer_1" xmlns="http://www.w3.org/2000/svg" xmlns:xlink="http://www.w3.org/1999/xlink" x="0px" y="0px"
	 width="200px" height="240px" viewBox="0 0 200 240" enable-background="new 0 0 200 240" xml:space="preserve">
<rect x="88.817" y="206.229" fill="#FFFFFF" stroke="#000000" stroke-miterlimit="10" width="30.51" height="31.766"/>
<circle fill="#FFFFFF" stroke="#000000" stroke-miterlimit="10" cx="104.071" cy="138.863" r="81.911"/>
<path fill="#FFFFFF" stroke="#000000" stroke-miterlimit="10" d="M174.486,161.317c0,4.465-3.619,8.082-8.084,8.082l-63.069-2
	l-61.592,2c-4.465,0-8.084-3.617-8.084-8.082l0,0c0-4.467,3.619-8.086,8.084-8.086h124.661
	C170.867,153.231,174.486,156.851,174.486,161.317L174.486,161.317z"/>
<path fill="#FFFFFF" stroke="#000000" stroke-miterlimit="10" d="M115.53,78.337c0,0-3.555,5.242-11.443,5.242
	c-7.887,0-11.611-5.242-11.611-5.242l6.553-56.244h9.949L115.53,78.337z"/>
<circle fill="#FFFFFF" stroke="#000000" stroke-miterlimit="10" cx="104.002" cy="15.268" r="13.803"/>
<path fill="#FFFFFF" stroke="#000000" stroke-miterlimit="10" d="M65.042,124.059c0,5.141-4.168,9.311-9.312,9.311H53.43
	c-5.143,0-9.311-4.17-9.311-9.311v-14.788c0-5.144,4.168-9.313,9.311-9.313h2.299c5.145,0,9.312,4.169,9.312,9.313V124.059z"/>
<path fill="#FFFFFF" stroke="#000000" stroke-miterlimit="10" d="M161.681,124.059c0,5.141-4.17,9.311-9.312,9.311h-2.298
	c-5.143,0-9.312-4.17-9.312-9.311v-14.788c0-5.144,4.17-9.313,9.312-9.313h2.298c5.143,0,9.312,4.169,9.312,9.313V124.059z"/>
</svg>
