<?xml version="1.0" encoding="utf-8"?>
<!-- Generator: Adobe Illustrator 15.0.0, SVG Export Plug-In . SVG Version: 6.00 Build 0)  -->
<!DOCTYPE svg PUBLIC "-//W3C//DTD SVG 1.1//EN" "http://www.w3.org/Graphics/SVG/1.1/DTD/svg11.dtd">
<svg version="1.1" xmlns="http://www.w3.org/2000/svg" xmlns:xlink="http://www.w3.org/1999/xlink" x="0px" y="0px" width="298px"
	 height="224.012px" viewBox="0 0 298 224.012" enable-background="new 0 0 298 224.012" xml:space="preserve">
<g id="Layer_5">
</g>
<g id="perched">
	<path fill-rule="evenodd" clip-rule="evenodd" d="M44,33.019c4.333,0,8.667,0,13,0c22.443,8.641,30.33,24.578,55,32
		c26.634,8.013,54.3,24.268,83,33c15.107,4.597,31.822,3.109,46,12c-3.324,3.01-10.69,1.977-15,4c24.568,3.432,42.753,3.247,65,9
		c3.196,3.94-3.95,11.307,2,12c0,0.666,0,1.334,0,2c-27.236,4.988-46.562-7.518-73-5c-5.902,0.562-11.19,3.795-17,5
		c-6.407,1.329-12.632,1.348-18,3c-10.428,3.209-16.42,11.533-26,17c-17.764,10.136-47,38-47,38s17.232-6.583,21,1
		c-13.99-0.169-31.513,11.228-38,25c-1.449-5.469,6.204-10.447,7-17c-7.893,1.115-22.612,4.049-33,6c1.2-8.133,13.201-5.466,20-8
		c-2.09-2.109-4.775-3.618-8-2c3.87-6.521,12.115-1.161,17-2c14.088-2.419,20.372-22.347,30-30c-15.266,1.046-41.9,2.753-46,21
		c-7.279-4.463,3.344-11.129,5-16c-9.055-0.047-23.449,3.212-32,7c2.112-7.222,11.085-7.582,19-9c-2.232-2.324-6.528-3.691-10-2
		c5.223-8.303,20.137,3.818,29-4c-32.189-9.19-61.309-26.729-62-66c-0.179-10.16,3.205-20.046,2-29
		c-2.053-15.258-13.882-20.231-28-25c0-0.333,0-0.667,0-1C17.44,39.792,34.862,40.548,44,33.019z"/>
	
		<rect x="47.435" y="39.992" transform="matrix(0.8184 -0.5747 0.5747 0.8184 -16.7927 35.9291)" fill-rule="evenodd" clip-rule="evenodd" fill="#F5F5F5" width="2.018" height="9.079"/>
	
		<rect x="46.739" y="39.48" transform="matrix(0.5042 0.8636 -0.8636 0.5042 61.6841 -19.4103)" fill-rule="evenodd" clip-rule="evenodd" fill="#F5F5F5" width="2.018" height="9.079"/>
</g>
<g id="talking" display="none">
	<path display="inline" fill-rule="evenodd" clip-rule="evenodd" d="M44,33.019c4.334,0,8.666,0,13,0
		c22.443,8.641,30.33,24.578,55,32c26.634,8.013,54.3,24.268,83,33c15.107,4.597,31.822,3.109,46,12c-3.324,3.01-10.689,1.977-15,4
		c24.568,3.432,42.754,3.247,65,9c3.197,3.94-3.949,11.307,2,12c0,0.666,0,1.334,0,2c-27.236,4.988-46.562-7.518-73-5
		c-5.902,0.562-11.189,3.795-17,5c-6.406,1.329-12.631,1.348-18,3c-10.428,3.209-16.42,11.533-26,17c-17.764,10.136-47,38-47,38
		s17.232-6.583,21,1c-13.99-0.169-31.512,11.228-38,25c-1.449-5.469,6.204-10.447,7-17c-7.893,1.115-22.612,4.049-33,6
		c1.2-8.133,13.201-5.466,20-8c-2.09-2.109-4.775-3.618-8-2c3.87-6.521,12.115-1.161,17-2c14.088-2.419,20.372-22.347,30-30
		c-15.266,1.046-41.9,2.753-46,21c-7.279-4.463,3.344-11.129,5-16c-9.055-0.047-23.449,3.212-32,7c2.111-7.222,11.085-7.582,19-9
		c-2.232-2.324-6.528-3.691-10-2c5.223-8.303,20.137,3.818,29-4c-32.189-9.19-61.309-26.729-62-66c-0.179-10.16,3.205-20.046,2-29
		c-2.053-15.258-10.882-25.231-25-30c0-0.333,0-0.667,0-1C20.44,34.792,34.863,40.548,44,33.019z"/>
	<polygon display="inline" fill-rule="evenodd" clip-rule="evenodd" points="23.915,43.019 10.249,47.019 16.572,49.731 
		26.582,50.019 	"/>
</g>
</svg>
