<?xml version="1.0" encoding="utf-8"?>
<!-- Generator: Adobe Illustrator 15.0.0, SVG Export Plug-In . SVG Version: 6.00 Build 0)  -->
<!DOCTYPE svg PUBLIC "-//W3C//DTD SVG 1.1//EN" "http://www.w3.org/Graphics/SVG/1.1/DTD/svg11.dtd">
<svg version="1.1" id="Layer_1" xmlns="http://www.w3.org/2000/svg" xmlns:xlink="http://www.w3.org/1999/xlink" x="0px" y="0px"
	 width="200px" height="200px" viewBox="0 0 200 200" enable-background="new 0 0 200 200" xml:space="preserve">
<g id="double" display="none">
	<path display="inline" fill="#FCE77E" d="M28.233,161.945c28.219,6.027,40.849-22.191,40.849-22.191L51.109,66.055l98.629-3.014
		l-7.396,78.33c0,0-49.315-5.178-41.644,20.986c7.671,26.164,45.479-15.344,45.479-15.344l13.151-102.876l-120,3.288l22.466,89.864
		C61.794,137.289,0.014,155.918,28.233,161.945z"/>
</g>
<g id="single">
	<path fill="#FCE77E" d="M94.973,39.11l-0.438,97.316c0,0-49.315-5.178-41.644,20.986s45.479-15.344,45.479-15.344l6.151-87.876
		l26.67-11.712L94.973,39.11z"/>
</g>
</svg>
